<?xml version="1.0" encoding="UTF-8"?>
<svg width="22" height="22" xmlns="http://www.w3.org/2000/svg">
 <style id="current-color-scheme" type="text/css">.ColorScheme-Text {
        color:#dedede;
      }</style>
 <g id="22-22-akonadi" transform="translate(0,-10)">
  <path id="path7" class="ColorScheme-Text" d="m11 13c-4.4183 0-8 0.89543-8 2v3.9941 0.005859 3.9941 0.005859 4c-1.92e-5 1.1046 3.5817 2 8 2 4.4183 0 8-0.89543 8-2v-4-4-4c1.9e-5 -1.1046-3.5817-2-8-2zm0 1c3.866 0 7 0.44772 7 1s-3.134 1-7 1c-3.866 0-7-0.44772-7-1s3.134-1 7-1zm7 1.9629v2.0703 0.9668c0 0.55228-3.134 1-7 1-3.866 0-7-0.44772-7-1v-0.96289-2.0703c1.4074 0.63719 4.0885 1.0329 7 1.0332 2.9148-0.0011 5.5967-0.39841 7-1.0371zm0 4v2.0703 0.9668c0 0.55228-3.134 1-7 1-3.866 0-7-0.44772-7-1v-0.96289-2.0703c2.0449 0.79865 4.2554 0.96526 6.4336 1.0273 0.18847 0.0036 0.37739 0.005559 0.56641 0.005859 0.26676 6.5e-5 0.53337-0.003166 0.79883-0.009766 2.0326-0.10853 4.3-0.19037 6.1934-1.0234l0.007812-0.003906zm0 4v3.0371c0 0.55228-3.134 1-7 1-3.866 0-7-0.44772-7-1v-3.0332c0.1292 0.05836 0.27 0.11508 0.42188 0.16992 1.9342 0.64306 3.9856 0.79967 6.0117 0.85742 0.18847 0.0036 0.37739 0.005559 0.56641 0.005859 0.26676 6.5e-5 0.53337-0.003166 0.79883-0.009766 2.0326-0.10853 4.3001-0.19032 6.1934-1.0234l0.007812-0.003906z" fill="currentColor"/>
  <path id="path9" d="m0 10v22h22v-22h-22z" fill="none"/>
 </g>
</svg>
