<?xml version="1.0" encoding="UTF-8"?>
<svg viewBox="0 0 22 22" xmlns="http://www.w3.org/2000/svg">
 <defs id="defs3051">
  <style id="current-color-scheme" type="text/css">.ColorScheme-Text {
        color:#dedede;
      }</style>
 </defs>
 <path class="ColorScheme-Text" transform="translate(0 -1030.4)" d="m12.339 1033.4-2.8327 0.2648v10.94l2.8015-0.3823v-4.676l3.7354 5.176 2.9261-0.8824-3.8288-4.97 3.8599-4.7054-2.9883-0.647-3.7043 4.7054 0.03122-4.823zm-6.3813 2.6761c-0.031669 0-0.069523 0.017-0.093407 0.03l-1.0895 1.0587c-0.0464 0.046-0.06524 0.1229-0.031228 0.1765l1.2763 1.9999c-0.22912 0.3639-0.39796 0.7624-0.52919 1.176l-2.3658 0.4708c-0.06596 0.017-0.12443 0.054-0.12443 0.1181v1.4705c0 0.062 0.060955 0.1314 0.12443 0.1465l2.3035 0.5294c0.12265 0.4795 0.30892 0.9352 0.5603 1.3526l-1.3385 1.9119c-0.037132 0.054-0.017821 0.1314 0.031228 0.1765l1.0895 1.0291c0.0464 0.042 0.13014 0.064 0.18676 0.03l2.0856-1.2056c0.41008 0.2235 0.83996 0.41 1.3074 0.5292l0.49804 2.2057c0.01429 0.064 0.05727 0.1179 0.12444 0.1179h1.5564c0.0656 0 0.13994-0.057 0.15562-0.1179l0.5603-2.2057c0.48183-0.1229 0.94959-0.3248 1.3697-0.5586l2.0545 1.294c0.05654 0.034 0.13869 0.017 0.18677-0.03l1.0895-1.0294c0.04668-0.046 0.06543-0.1229 0.03122-0.1763l-0.74708-1.1761-0.24903 0.088c-0.03554 0.017-0.07255 0-0.09341-0.03 0 0-0.47082-0.6738-1.0895-1.5294-0.73959 1.3676-2.2468 2.2941-3.9844 2.2941-2.4687 0-4.4825-1.873-4.4825-4.2055 0-1.7157 1.0908-3.1915 2.6459-3.8525v-1.0882c-0.28305 0.094-0.54946 0.1896-0.80935 0.3237h-0.031228l-2.0856-1.2942c-0.02836-0.017-0.061672-0.032-0.093419-0.029z" fill="currentColor"/>
</svg>
