<?xml version="1.0" encoding="UTF-8"?>
<svg width="22" height="22" xmlns="http://www.w3.org/2000/svg">
 <style id="current-color-scheme" type="text/css">.ColorScheme-Text {
        color:#dedede;
      }
      .ColorScheme-Background {
        color:#eff0f1;
      }
      .ColorScheme-Accent {
        color:#a3c9dc;
      }
      .ColorScheme-ButtonText {
        color:#dedede;
      }</style>
 <g id="korgac">
  <path id="rect4131" class="ColorScheme-Text" d="m11 3c-4.432 0-8 3.568-8 8 0 4.432 3.568 8 8 8 4.432 0 8-3.568 8-8 0-4.432-3.568-8-8-8zm0 1c3.878 0 7 3.122 7 7 0 3.878-3.122 7-7 7-3.878 0-7-3.122-7-7 0-3.878 3.122-7 7-7zm-1 1v7h1 5v-1h-5v-6h-1z" fill="currentColor"/>
  <rect id="rect4162" width="22" height="22" fill="none"/>
 </g>
</svg>
