<?xml version="1.0" encoding="UTF-8"?>
<svg width="22" height="22" xmlns="http://www.w3.org/2000/svg">
 <style id="current-color-scheme" type="text/css">.ColorScheme-Text {
        color:#dedede;
      }
      .ColorScheme-Background {
        color:#eff0f1;
      }
      .ColorScheme-Accent {
        color:#a3c9dc;
      }
      .ColorScheme-ButtonText {
        color:#dedede;
      }</style>
 <g id="kteatime" transform="translate(-1.2212e-15 -1.2212e-15)">
  <rect id="rect3825" x="1.2212e-15" y="1.2212e-15" width="22" height="22" fill-opacity="0"/>
  <path id="rect4168" class="ColorScheme-Text" d="m10 2v2h1v-2h-1zm-3 1v1h1v-1h-1zm6 0v1h1v-1h-1zm-8 2v12h12v-3h1c1.108 0 2-0.892 2-2v-4c0-1.108-0.892-2-2-2h-1v-1h-12zm1 1h3v1h-1c-0.554 0-1 0.446-1 1v5c0 0.554 0.446 1 1 1h3c0.554 0 1-0.446 1-1v-5c0-0.554-0.446-1-1-1h-1v-1h6v10h-10v-10zm11 1h1c0.554 0 1 0.446 1 1v4c0 0.554-0.446 1-1 1h-1v-6zm-9 2h3v4h-3v-4zm-5 9v1h16v-1h-16z" fill="currentColor"/>
 </g>
</svg>
