<?xml version="1.0" encoding="UTF-8"?>
<svg viewBox="0 0 22 22" xmlns="http://www.w3.org/2000/svg">
 <defs id="defs3051">
  <style id="current-color-scheme" type="text/css">.ColorScheme-Text {
        color:#dedede;
      }</style>
 </defs>
 <path class="ColorScheme-Text" d="m7 3c-0.554 0-1 0.446-1 1s0.446 1 1 1 1-0.446 1-1-0.446-1-1-1zm7 0-2 2 3 3-3 3 2 2 5-5-5-5zm-9.5 6c-0.831 0-1.5 0.669-1.5 1.5s0.669 1.5 1.5 1.5 1.5-0.669 1.5-1.5-0.669-1.5-1.5-1.5zm4.5 6c-1.108 0-2 0.892-2 2s0.892 2 2 2 2-0.892 2-2-0.892-2-2-2z" fill="currentColor"/>
</svg>
