<?xml version="1.0" encoding="UTF-8"?>
<svg viewBox="0 0 22 22" xmlns="http://www.w3.org/2000/svg">
 <defs id="defs3051">
  <style id="current-color-scheme" type="text/css">.ColorScheme-Text {
        color:#dedede;
      }</style>
 </defs>
 <path class="ColorScheme-Text" d="m0 6 4 10h1l4-10h-1-1l-2.5 6.25-2.5-6.25h-1-1z" fill="currentColor"/>
 <path class="ColorScheme-Text" d="m9 6-4 10h1 2l2.5-6.25 2.5 6.25h1 1l2.5-6.25 2.5 6.25h1 1l-4-10h-1-1l-2.5 6.25-2.5-6.25h-1-1zm0.5 1.25 0.5 1.25-2.5996 6.5h-1l3.0996-7.75zm7 0 0.5 1.25-2.5 6.25-0.5-1.25 2.5-6.25z" fill="currentColor"/>
</svg>
