<?xml version="1.0" encoding="UTF-8"?>
<svg width="22" height="22" xmlns="http://www.w3.org/2000/svg">
 <style id="current-color-scheme" type="text/css">.ColorScheme-Background {color:#181818; } .ColorScheme-Accent { color:#1a73e8; } .ColorScheme-Text { color:#dedede; } .ColorScheme-NegativeText { color:#ff4747; }</style>
 <g id="22-22-yakuake">
  <rect id="rect2" width="22" height="22" opacity=".001"/>
  <path id="rect43-3" class="ColorScheme-Text" d="m2.5012 5.5496v0.033482h16.998v-0.033482zm16.998 0.033482v11.833h-16.998v-11.833h-0.66825v12.5h18.334v-12.5zm-7.9008 2.8907-2.5 2.5 0.88451 0.88451 2.5-2.5z" fill="currentColor" fill-opacity=".3"/>
  <path id="rect63-6" class="ColorScheme-Text" d="m1.4167 3.9168h19.167c0.23084 0 0.41667 0.18584 0.41667 0.41667v0.83336c0 0.23084-0.18584 0.41667-0.41667 0.41667h-19.167c-0.23084 0-0.41667-0.18584-0.41667-0.41667v-0.83336c0-0.23084 0.18584-0.41667 0.41667-0.41667zm6.0665 4.5575-0.88422 0.88422 2.0597 2.0579-2.0597 2.0579 0.88422 0.88422 2.9422-2.9422zm3.5175 6.2767v1.25h4.5827v-1.25z" fill="currentColor"/>
 </g>
</svg>
