<?xml version="1.0" encoding="UTF-8"?>
<svg viewBox="0 0 22 22" xmlns="http://www.w3.org/2000/svg">
 <style id="current-color-scheme" type="text/css">.ColorScheme-Text {
            color:#dedede;
        }</style>
 <g class="ColorScheme-Text" fill="currentColor">
  <path d="m5 3v16h8v-1h-4v-3h5v-1h-6.293l-1-1h-0.70703v-3h0.70703l1-1h6.5859l1 1h0.70703v2h1v-6.707l-2.293-2.293zm2 2h1v3h-0.70703l-1.293 1.293v-3.293c0-0.554 0.446-1 1-1zm2 0h4v3h-4zm5 0h1c0.554 0 1 0.446 1 1v3.293l-1.293-1.293h-0.70703zm-8 8.707 1.293 1.293h0.70703v3h-1c-0.554 0-1-0.446-1-1z"/>
  <path d="m16.5 13a1.5 1.5 0 0 0 -1.5 1.5v1.5h-1v3h5v-3h-1v-1.5a1.5 1.5 0 0 0 -1.5-1.5zm0 1a.5.5 0 0 1 .5.5v1.5h-1v-1.5a.5.5 0 0 1 .5-.5z" fill-rule="evenodd"/>
 </g>
</svg>
