<?xml version="1.0" encoding="UTF-8"?>
<svg id="svg11" width="22" height="22" version="1.1" xmlns="http://www.w3.org/2000/svg">
 <defs id="defs3">
  <style id="current-color-scheme" type="text/css">.ColorScheme-Text { color:#dedede; } .ColorScheme-Highlight { color:#a0b6cb; }</style>
 </defs>
 <g id="g9" class="ColorScheme-Text" transform="translate(1,3)" fill="currentColor">
  <rect id="rect5" x="2" y="5" width="13" height="6" rx=".521" ry=".546" fill="#bac695"/>
  <path id="path7" d="m2 3c-1.108 0-2 0.892-2 2v6c0 1.108 0.892 2 2 2h13c1.108 0 2-0.892 2-2v-6c0-1.108-0.892-2-2-2zm0 1h13c0.554 0 1 0.446 1 1v6c0 0.554-0.446 1-1 1h-13c-0.554 0-1-0.446-1-1v-6c0-0.554 0.446-1 1-1zm16 2v4a2 2 0 0 0 2-2 2 2 0 0 0-2-2z"/>
 </g>
</svg>
