<?xml version="1.0" encoding="UTF-8"?>
<svg viewBox="0 0 22 22" xmlns="http://www.w3.org/2000/svg">
 <defs id="defs1">
  <style id="current-color-scheme" type="text/css">.ColorScheme-Text {
                color:#dedede;
            }
            .ColorScheme-NegativeText {
                color:#d19494;
            }</style>
 </defs>
 <path class="ColorScheme-NegativeText" d="m16 12c-1.6569 0-3 0.44772-3 1v5c0 0.55228 1.3431 1 3 1s3-0.44772 3-1v-5c0-0.55228-1.3431-1-3-1zm0 1c0.73919 8.7e-4 1.4514 0.09268 2 0.25781v0.48633c-0.54948 0.16443-1.2616 0.25552-2 0.25586-0.73919-8.7e-4 -1.4514-0.09268-2-0.25781v-0.48633c0.54948-0.16443 1.2616-0.25552 2-0.25586z" fill="currentColor"/>
 <path class="ColorScheme-NegativeText" d="m9 6v5h2v-5zm0 6v2h2v-2z" fill="currentColor"/>
 <path class="ColorScheme-Text" d="m4 3v16h8v-3h-5l-2-2v-2.1c0.6-0.2 1-0.8 1-1.4s-0.4-1.2-1-1.4v-2.1c0-1.7 1.3-3 3-3h4c1.66 0 3 1.34 3 3v2.1c-0.6 0.2-1 0.8-1 1.4 6.76e-4 0.2 0 0.3 0.1 0.5h1.9v-8zm2 14h5v1h-5z" fill="currentColor"/>
</svg>
