<?xml version="1.0" encoding="UTF-8"?>
<svg viewBox="0 0 22 22" xmlns="http://www.w3.org/2000/svg">
 <defs id="defs1">
  <style id="current-color-scheme" type="text/css">.ColorScheme-Text {
                color:#dedede;
            }
            .ColorScheme-NeutralText {
                color:#f5cba3;
            }</style>
 </defs>
 <path class="ColorScheme-NeutralText" d="m16 12c-1.6569 0-3 0.44772-3 1v5c0 0.55228 1.3431 1 3 1s3-0.44772 3-1v-5c0-0.55228-1.3431-1-3-1zm-0.1 1c0.03333-1.85e-4 0.06667-1.85e-4 0.1 0 0.73919 8.7e-4 1.4514 0.09268 2 0.25781v0.48219c-0.54764 0.16593-1.2599 0.25853-2 0.26-0.75636-0.01228-1.4708-0.11944-2-0.3v-0.5c0.54648-0.13687 1.2168-0.20743 1.9-0.2zm-1.9 1.74c0.54764 0.16593 1.2599 0.25853 2 0.26 0.74006-0.0015 1.4524-0.09407 2-0.26v1c-0.54764 0.16593-1.2599 0.25853-2 0.26-0.75636-0.01228-1.4708-0.11944-2-0.3z" fill="currentColor"/>
 <path class="ColorScheme-Text" d="m4 3v16h8v-3h-5l-2-2v-2.1c0.6-0.2 1-0.8 1-1.4s-0.4-1.2-1-1.4v-2.1c0-1.7 1.3-3 3-3h4c1.66 0 3 1.34 3 3v2.1c-0.6 0.2-1 0.8-1 1.4 6.76e-4 0.2 0 0.3 0.1 0.5h1.9v-8zm2 14h5v1h-5z" fill="currentColor"/>
</svg>
