<?xml version="1.0" encoding="UTF-8"?>
<svg width="22" height="22" xmlns="http://www.w3.org/2000/svg">
 <style id="current-color-scheme" type="text/css">.ColorScheme-Text {
        color:#dedede;
      }
      .ColorScheme-Background {
        color:#eff0f1;
      }
      .ColorScheme-Highlight {
        color:#a0b6cb;
      }
      .ColorScheme-ButtonText {
        color:#dedede;
      }</style>
 <g id="fcitx-kbd" transform="translate(0 2.7e-5)">
  <rect id="rect4209" width="22" height="22" fill="none"/>
  <path id="path4211" class="ColorScheme-Text" transform="translate(0 -1030.4)" d="m13 1033.4v2c0 0.554-0.446 1-1 1-1.108 0-2 0.892-2 2h-8v11h18v-11h-9c0-0.554 0.446-1 1-1 1.108 0 2-0.892 2-2v-2h-1zm-10 6h16v1h-16v-1zm0 2h16v7h-16v-7zm1 1v1h2v-1h-2zm3 0v1h2v-1h-2zm3 0v1h2v-1h-2zm3 0v1h2v-1h-2zm3 0v1h2v-1h-2zm-12 2v1h2v-1h-2zm3 0v1h2v-1h-2zm3 0v1h2v-1h-2zm3 0v1h2v-1h-2zm3 0v1h2v-1h-2zm-12 2v1h2v-1h-2zm3 0v1h8v-1h-8zm9 0v1h2v-1h-2z" fill="currentColor"/>
 </g>
</svg>
