<?xml version="1.0" encoding="UTF-8"?>
<svg width="22" height="22" xmlns="http://www.w3.org/2000/svg">
 <style id="current-color-scheme" type="text/css">.ColorScheme-Text {
        color:#dedede;
      }
      .ColorScheme-Background {
        color:#eff0f1;
      }
      .ColorScheme-Highlight {
        color:#a0b6cb;
      }
      .ColorScheme-ButtonText {
        color:#dedede;
      }</style>
 <g id="kalarm-disabled" transform="translate(-326 -534.36)">
  <rect id="rect4178-6" x="326" y="534.36" width="22" height="22" fill="none"/>
  <path id="path4183-7" class="ColorScheme-Text" transform="translate(304 534.36)" d="m33 3a1.5 1.5 0 0 0-1.5 1.5 1.5 1.5 0 0 0 0.16797 0.68555 5 5 0 0 0-3.668 4.8145 3.5 6 0 0 1-3 5.9316v1.0684h10v-1h-8.1953a4.5 7 0 0 0 2.1953-6 4 4 0 0 1 4-4 4 4 0 0 1 4 4 4.5 7 0 0 0 0.44336 3h1.0293a3.5 6 0 0 1-0.47266-3 5 5 0 0 0-3.666-4.8184 1.5 1.5 0 0 0 0.16602-0.68164 1.5 1.5 0 0 0-1.5-1.5z" fill="currentColor"/>
  <path id="rect4145" class="ColorScheme-Text" transform="translate(304 534.36)" d="m36 14v6h2v-6h-2zm3 0v6h2v-6h-2z" fill="currentColor" fill-opacity=".6"/>
 </g>
</svg>
