<?xml version="1.0" encoding="UTF-8"?>
<svg width="22" height="22" xmlns="http://www.w3.org/2000/svg">
 <style id="current-color-scheme" type="text/css">.ColorScheme-Text {
        color:#dedede;
      }
      .ColorScheme-Background {
        color:#eff0f1;
      }
      .ColorScheme-Highlight {
        color:#a0b6cb;
      }
      .ColorScheme-ButtonText {
        color:#dedede;
      }</style>
 <g id="kpackagekit-security" transform="translate(-22 2.6645e-15)">
  <g id="g4225" fill-rule="evenodd">
   <path id="path4185" class="ColorScheme-Text" d="m29 7-3 3v9h14.1v-9l-3-3h-6zm0.3 1h7.4l2 2h-11.4zm1.7 3h4v5l-1-1-1 1-1-1-1 1z" fill="currentColor"/>
   <path id="path4191" d="m38 3c0 1-2 1-2 1v3c0 1 1 1 2 2 1-1 2-1 2-2v-3s-2 0-2-1z" fill="#f3dea4"/>
  </g>
  <rect id="rect4208" x="22" y="-2.6645e-15" width="22" height="22" fill="none"/>
 </g>
</svg>
