<?xml version="1.0" encoding="UTF-8"?>
<svg width="22" height="22" xmlns="http://www.w3.org/2000/svg">
 <style id="current-color-scheme" type="text/css">.ColorScheme-Text {
            color:#dedede;
        }
        .ColorScheme-ButtonFocus {
            color:#a0b6cb;
        }
        .ColorScheme-NegativeText {
            color:#d19494;
        }</style>
 <g id="notification-empty" transform="translate(-1 -1)">
  <path id="path28" d="m1 1h22v22h-22z" fill="none"/>
  <path id="circle-outline" class="ColorScheme-Text" d="m12 4a8 8 0 0 0-8 8 8 8 0 0 0 8 8 8 8 0 0 0 8-8 8 8 0 0 0-8-8zm0 1a7 7 0 0 1 7 7 7 7 0 0 1-7 7 7 7 0 0 1-7-7 7 7 0 0 1 7-7z" fill="currentColor"/>
 </g>
</svg>
