<?xml version="1.0" encoding="UTF-8"?>
<svg id="svg11" version="1.1" viewBox="0 0 22 22" xmlns="http://www.w3.org/2000/svg">
 <style id="current-color-scheme" type="text/css">.ColorScheme-Text {            color:#dedede;        }</style>
 <path id="rect3983" class="ColorScheme-Text" d="m9 2.293-6.707 6.707 10.707 10.707 6.707-6.707-10.707-10.707zm3 0.70898a7 7 0 0 0-0.80664 0.072266l0.93359 0.93359a6 6 0 0 1 5.041 2.9941h-2.168v0.99805h3.998l0.001953-4h-1v2.4258a7 7 0 0 0-6-3.4238zm-3 0.70508 9.293 9.293-5.293 5.293-9.293-9.293 5.293-5.293zm-5.998 10.293-0.0019531 4h1v-2.4258a7 7 0 0 0 6 3.4238 7 7 0 0 0 0.80664-0.072266l-0.93359-0.93359a6 6 0 0 1-5.041-2.9941h2.1699v-0.99805h-4z" fill="currentColor" stroke-linecap="square" style="paint-order:markers fill stroke"/>
</svg>
