<?xml version="1.0" encoding="UTF-8"?>
<svg id="svg908" version="1.1" viewBox="0 0 22 22" xmlns="http://www.w3.org/2000/svg">
 <defs id="defs3051">
  <style id="current-color-scheme" type="text/css">.ColorScheme-Text {
        color:#dedede;
      }
      .ColorScheme-NeutralText {
        color:#f5cba3;
      }</style>
 </defs>
 <g id="g906" transform="translate(-421.71 -525.79)">
  <path id="path4196" class="ColorScheme-Text" transform="translate(421.71 525.79)" d="m11 4a6 6 0 0 0-6 6 6 6 0 0 0 0.0039062 0.12891 4 4 0 0 0-3.0039 3.8711 4 4 0 0 0 4 4h9a5 5 0 0 0 5-5 5 5 0 0 0-3.2422-4.6758 6 6 0 0 0-5.7578-4.3242zm0 1a5 5 0 0 1 4.9199 4.1113 4 4 0 0 1 3.0801 3.8887 4 4 0 0 1-4 4h-9a3 3 0 0 1-3-3 3 3 0 0 1 3-3 3 3 0 0 1 0.10742 0.005859 5 5 0 0 1-0.10742-1.0059 5 5 0 0 1 5-5z" fill="currentColor"/>
  <path id="path4250" class="ColorScheme-NeutralText" d="m437.21 536.79h4e-3a0.5 0.5 0 0 1 0.43945 0.2695h4e-3l3.9863 6.9746h-2e-3a0.5 0.5 0 0 1 0.0684 0.252 0.5 0.5 0 0 1-0.5 0.5h-8a0.5 0.5 0 0 1-0.5-0.5 0.5 0.5 0 0 1 0.0684-0.252h-2e-3l3.9863-6.9727h2e-3a0.5 0.5 0 0 1 2e-3 0 0.5 0.5 0 0 1 0.44336-0.2715z" fill="#deb68c"/>
  <path id="rect4241" transform="translate(421.71 525.79)" d="m15 13v3h1v-3h-1zm0 4v1h1v-1h-1z" fill="#fff"/>
 </g>
</svg>
