<?xml version="1.0" encoding="UTF-8"?>
<svg viewBox="0 0 22 22" xmlns="http://www.w3.org/2000/svg">
 <defs id="defs3051">
  <style id="current-color-scheme" type="text/css">.ColorScheme-Text {
        color:#dedede;
      }</style>
 </defs>
 <path d="m18.768 14.014c-0.97461 0.11302-1.7233 0.91634-1.7676 1.8965-6.73e-4 0.02994-6.73e-4 0.0599 0 0.08984h1c-5.23e-4 -0.50735 0.37896-0.93469 0.88281-0.99414 0.03807-0.009296 0.07813-0.009155 0.11719-0.005855 0.50735-5.23e-4 0.93469 0.39458 0.99414 0.89844-0.01833 1.1798-0.89622 1.2367-1.9922 1.3223 0 0-2e-3 1.6903-2e-3 1.793h1l4.7e-5 -1.0137h0.23247c0.97452-0.11302 1.7233-0.91634 1.7675-1.8965-0.01062-0.10507-0.0084-0.19575-0.01367-0.32031-0.11302-0.97461-0.91634-1.7233-1.8965-1.7676-0.10647-9.03e-4 -0.21274-0.0013-0.32227-2e-3zm-0.76562 5.9863v1h1v-1h-1z" fill="#f3dea4"/>
 <path class="ColorScheme-Text" d="m2 2v18h1v-3h4v1h8v-1h1v-1h-13v-11h16v8h1v-9h-17v-2h-1zm10.5 4a3.5 3.5 0 0 0-3.1582 2h-3.3418v7h7v-2.041a3.5 3.5 0 0 0 3-3.459 3.5 3.5 0 0 0-3.5-3.5zm-0.06445 1a2.5 2.5 0 0 1 0.06445 0 2.5 2.5 0 0 1 2.5 2.5 2.5 2.5 0 0 1-2 2.4453v-3.9453h-2.4961a2.5 2.5 0 0 1 1.9316-1zm-5.4356 2h2.0391a3.5 3.5 0 0 0-0.039062 0.5 3.5 3.5 0 0 0 3 3.4609v1.0391h-5v-5zm3.0508 0h1.9492v2.9492a2.5 2.5 0 0 1-2-2.4492 2.5 2.5 0 0 1 0.050781-0.5z" fill="currentColor"/>
</svg>
