<?xml version="1.0" encoding="UTF-8"?>
<svg width="22" height="22" xmlns="http://www.w3.org/2000/svg">
 <style id="current-color-scheme" type="text/css">.ColorScheme-Text {
        color:#dedede;
      }
      .ColorScheme-Background {
        color:#eff0f1;
      }
      .ColorScheme-Highlight {
        color:#a0b6cb;
      }
      .ColorScheme-ButtonText {
        color:#dedede;
      }</style>
 <g id="wallet-closed" transform="translate(-22)">
  <path id="path4200" class="ColorScheme-Text" d="m24 7v11c0 0.554 0.446 1 1 1h17v-11c0-0.554-0.446-1-1-1h-16zm1 1h16v3h-7c-1.108 0-2 0.892-2 2s0.892 2 2 2h7v3h-16zm10 4c0.55228 0 1 0.44772 1 1s-0.44772 1-1 1-1-0.44772-1-1 0.44772-1 1-1z" fill="currentColor"/>
  <rect id="rect4222" x="22" width="22" height="22" fill="none"/>
 </g>
</svg>
