<?xml version="1.0" encoding="UTF-8"?>
<svg width="64" height="64" viewBox="0 0 64 64" xmlns="http://www.w3.org/2000/svg" xmlns:xlink="http://www.w3.org/1999/xlink">
 <linearGradient id="a">
  <stop stop-color="#424649" offset="0"/>
  <stop stop-color="#2a2c2f" offset="1"/>
 </linearGradient>
 <linearGradient id="b" x1="22" x2="22" y1="6" y2="58" gradientUnits="userSpaceOnUse" xlink:href="#a"/>
 <linearGradient id="c" x1="24" x2="24" y1="9" y2="13" gradientUnits="userSpaceOnUse">
  <stop stop-color="#da4453" offset="0"/>
  <stop stop-color="#c0392b" offset="1"/>
 </linearGradient>
 <linearGradient id="d" x1="40" x2="40" y1="9" y2="19" gradientUnits="userSpaceOnUse">
  <stop stop-color="#7f8c8d" offset="0"/>
  <stop stop-color="#596364" offset=".39747"/>
  <stop stop-color="#7f8c8d" offset=".60099"/>
  <stop stop-color="#596364" offset="1"/>
 </linearGradient>
 <linearGradient id="e" x1="24" x2="24" y1="37" y2="21" gradientUnits="userSpaceOnUse">
  <stop stop-color="#596364" offset="0"/>
  <stop stop-color="#4c5455" offset="1"/>
  <stop stop-color="#596364" offset="1"/>
  <stop stop-color="#4c5455" offset="1"/>
 </linearGradient>
 <linearGradient id="f" x1="32" x2="32" y1="25" y2="34" gradientUnits="userSpaceOnUse" xlink:href="#a"/>
 <linearGradient id="g" x1="24" x2="24" y1="39" y2="49" gradientUnits="userSpaceOnUse">
  <stop stop-color="#596364" offset="0"/>
  <stop stop-color="#4c5455" offset=".4"/>
  <stop stop-color="#596364" offset=".6"/>
  <stop stop-color="#4c5455" offset="1"/>
 </linearGradient>
 <rect x="22" y="6" width="20" height="52" ry="3" fill="url(#b)" stroke-width="2.896"/>
 <g stroke-width="2">
  <circle cx="32" cy="29" r="8" fill="url(#e)"/>
  <circle cx="32" cy="29" r="4" fill="url(#f)"/>
  <path d="m24 11v1a2 2 0 0 0 2 2 2 2 0 0 0 2-2v-1zm12 0v1a2 2 0 0 0 2 2 2 2 0 0 0 2-2v-1zm-12 6v1a2 2 0 0 0 2 2 2 2 0 0 0 2-2v-1zm6 0v1a2 2 0 0 0 2 2 2 2 0 0 0 2-2v-1zm6 0v1a2 2 0 0 0 2 2 2 2 0 0 0 2-2v-1zm-0.0352 11.48a4 4 0 0 1-3.9648 3.5195 4 4 0 0 1-3.9648-3.5 4 4 0 0 0-0.0352 0.5 4 4 0 0 0 4 4 4 4 0 0 0 4-4 4 4 0 0 0-0.0352-0.5195zm-11.965 12.52v1a2 2 0 0 0 2 2 2 2 0 0 0 2-2v-1zm6 0v1a2 2 0 0 0 2 2 2 2 0 0 0 2-2v-1zm6 0v1a2 2 0 0 0 2 2 2 2 0 0 0 2-2v-1zm-12 6v1a2 2 0 0 0 2 2 2 2 0 0 0 2-2v-1zm6 0v1a2 2 0 0 0 2 2 2 2 0 0 0 2-2v-1zm6 0v1a2 2 0 0 0 2 2 2 2 0 0 0 2-2v-1z" opacity=".15"/>
 </g>
 <path d="m22 54v1c0 1.662 1.338 3 3 3h14c1.662 0 3-1.338 3-3v-1c0 1.662-1.338 3-3 3h-14c-1.662 0-3-1.338-3-3z" opacity=".4" stroke-width="2.896"/>
 <g stroke-width="2">
  <circle cx="26" cy="11" r="2" fill="url(#c)"/>
  <path d="m38 9a2 2 0 0 0-2 2 2 2 0 0 0 2 2 2 2 0 0 0 2-2 2 2 0 0 0-2-2zm-12 6a2 2 0 0 0-2 2 2 2 0 0 0 2 2 2 2 0 0 0 2-2 2 2 0 0 0-2-2zm6 0a2 2 0 0 0-2 2 2 2 0 0 0 2 2 2 2 0 0 0 2-2 2 2 0 0 0-2-2zm6 0a2 2 0 0 0-2 2 2 2 0 0 0 2 2 2 2 0 0 0 2-2 2 2 0 0 0-2-2z" fill="url(#d)"/>
  <path d="m26 39a2 2 0 0 0-2 2 2 2 0 0 0 2 2 2 2 0 0 0 2-2 2 2 0 0 0-2-2zm6 0a2 2 0 0 0-2 2 2 2 0 0 0 2 2 2 2 0 0 0 2-2 2 2 0 0 0-2-2zm6 0a2 2 0 0 0-2 2 2 2 0 0 0 2 2 2 2 0 0 0 2-2 2 2 0 0 0-2-2zm-12 6a2 2 0 0 0-2 2 2 2 0 0 0 2 2 2 2 0 0 0 2-2 2 2 0 0 0-2-2zm6 0a2 2 0 0 0-2 2 2 2 0 0 0 2 2 2 2 0 0 0 2-2 2 2 0 0 0-2-2zm6 0a2 2 0 0 0-2 2 2 2 0 0 0 2 2 2 2 0 0 0 2-2 2 2 0 0 0-2-2z" fill="url(#g)"/>
 </g>
</svg>
