<?xml version="1.0" encoding="UTF-8"?>
<svg id="svg305" width="64" height="64" version="1.1" xml:space="preserve" xmlns="http://www.w3.org/2000/svg"><rect id="rect285" x="3.999" y="3.999" width="56.002" height="56.002" rx="13.002" ry="13.002" fill="#a6d9f2" stroke-width="3.7796"/><text id="text289" x="15.268" y="11.09" font-family="sans-serif" font-size="3.3333px" style="line-height:1.25" xml:space="preserve"><tspan id="tspan287" x="15.268" y="11.09" fill="#fff" font-family='"微软雅黑"' font-size="3.3333px" font-weight="400">Dictionary - Thesaurus</tspan></text><text id="text293" x="14.062" y="41.722" font-family="sans-serif" font-size="29.333px" style="line-height:1.25" xml:space="preserve"><tspan id="tspan291" x="14.062" y="41.722" fill="#fff" font-family='"方正小标宋_GBK"' font-size="29.333px" font-weight="400">Aa</tspan></text><path id="path295" d="m16.991 12.52 30.018-.015" fill="#c8c8c8" fill-opacity=".5" stroke="#000" stroke-width=".05"/><g id="g301"><path id="path297" transform="translate(12.857 15.183)scale(.03865)" d="m969.98 905.86-127.83-109.32a39.382 39.382 0 1 0-55.686 55.686l127.83 109.32a39.382 39.382 0 1 0 55.686-55.686z"/><path id="path299" transform="translate(12.857 15.183)scale(.03865)" d="m468.41 841.11a381.14 381.14 0 1 0 0-762.27 381.14 381.14 0 0 0 0 762.27m0 78.763a459.9 459.9 0 1 1 0-919.8 459.9 459.9 0 0 1 0 919.8" fill="#999"/></g><path id="path303" d="m8.631 7.035-.546.494-.463.433-.328.355-.345.394-.266.341-.426.595-.364.569-.338.58-.262.523-.194.409-.183.464-.2.483-.157.502-.176.644-.114.489-.085.506-.09.545-.049.434-.022.323-.024.535-.003 1.339v29.103l.036.981.058.574.062.4.067.365.106.526.119.476.118.393.137.439.128.345.165.432.18.4.311.63.362.676.443.62.51.665.606.75.646.663.73.604z" fill="#84b2ca"/></svg>
