<?xml version="1.0" encoding="UTF-8" standalone="no"?>
<svg
   viewBox="0 0 16 16"
   version="1.1"
   id="svg12"
   sodipodi:docname="im-user-online.svg"
   inkscape:version="1.2.2 (b0a8486541, 2022-12-01)"
   xmlns:inkscape="http://www.inkscape.org/namespaces/inkscape"
   xmlns:sodipodi="http://sodipodi.sourceforge.net/DTD/sodipodi-0.dtd"
   xmlns="http://www.w3.org/2000/svg"
   xmlns:svg="http://www.w3.org/2000/svg">
  <defs
     id="defs16">
    <inkscape:path-effect
       effect="powerclip"
       id="path-effect392"
       is_visible="true"
       lpeversion="1"
       inverse="true"
       flatten="false"
       hide_clip="false"
       message="Use fill-rule evenodd on &lt;b&gt;fill and stroke&lt;/b&gt; dialog if no flatten result after convert clip to paths." />
    <clipPath
       clipPathUnits="userSpaceOnUse"
       id="clipPath388">
      <path
         fill="#ffffff"
         d="m 431.31,535.02 0.707,0.707 -2.83,2.828 -1.768,-1.768 0.707,-0.707 1.061,1.061 z"
         id="path390"
         style="display:none" />
      <path
         id="lpe_path-effect392"
         class="powerclip"
         d="m 421.71,528.79 h 16 v 16 h -16 z m 9.6,6.23 -2.123,2.121 -1.061,-1.061 -0.707,0.707 1.768,1.768 2.83,-2.828 z" />
    </clipPath>
  </defs>
  <sodipodi:namedview
     id="namedview14"
     pagecolor="#ffffff"
     bordercolor="#000000"
     borderopacity="0.25"
     inkscape:showpageshadow="2"
     inkscape:pageopacity="0.0"
     inkscape:pagecheckerboard="0"
     inkscape:deskcolor="#d1d1d1"
     showgrid="false"
     inkscape:zoom="51.3125"
     inkscape:cx="5.7295981"
     inkscape:cy="8.0194884"
     inkscape:window-width="1920"
     inkscape:window-height="1021"
     inkscape:window-x="0"
     inkscape:window-y="0"
     inkscape:window-maximized="1"
     inkscape:current-layer="svg12" />
  <g
     transform="translate(-421.71-531.79)"
     id="g10">
    <g
       fill="#aac69f"
       id="g6">
      <path
         d="M8 9A5 4.5 0 0 0 3 13.5 5 4.5 0 0 0 3.033203 14H12.963A5 4.5 0 0 0 13 13.5 5 4.5 0 0 0 8 9M8 10A4 3.5 0 0 1 11.955078 13H4.045A4 3.5 0 0 1 8 10"
         transform="translate(421.71 531.79)"
         id="path2" />
      <path
         d="m 429.71,533.79 c -1.657,0 -3,1.343 -3,3 0,1.657 1.343,3 3,3 1.657,0 3,-1.343 3,-3 0,-1.657 -1.343,-3 -3,-3 m 1.592,1.232 0.707,0.707 -2.83,2.828 -1.768,-1.768 0.707,-0.707 1.061,1.061 z"
         id="path4"
         clip-path="url(#clipPath388)"
         inkscape:path-effect="#path-effect392"
         inkscape:original-d="m429.71 533.79c-1.657 0-3 1.343-3 3 0 1.657 1.343 3 3 3 1.657 0 3-1.343 3-3 0-1.657-1.343-3-3-3m1.592 1.232l.707.707-2.83 2.828-1.768-1.768.707-.707 1.061 1.061z" />
    </g>
  </g>
</svg>
