<?xml version="1.0" encoding="UTF-8" standalone="no"?>
<svg
   viewBox="0 0 16 16"
   version="1.1"
   id="svg140"
   sodipodi:docname="im-user-offline.svg"
   inkscape:version="1.2.2 (b0a8486541, 2022-12-01)"
   xmlns:inkscape="http://www.inkscape.org/namespaces/inkscape"
   xmlns:sodipodi="http://sodipodi.sourceforge.net/DTD/sodipodi-0.dtd"
   xmlns="http://www.w3.org/2000/svg"
   xmlns:svg="http://www.w3.org/2000/svg">
  <sodipodi:namedview
     id="namedview142"
     pagecolor="#ffffff"
     bordercolor="#000000"
     borderopacity="0.25"
     inkscape:showpageshadow="2"
     inkscape:pageopacity="0.0"
     inkscape:pagecheckerboard="0"
     inkscape:deskcolor="#d1d1d1"
     showgrid="false"
     inkscape:zoom="51.3125"
     inkscape:cx="5.7295981"
     inkscape:cy="8.0194884"
     inkscape:window-width="1920"
     inkscape:window-height="1021"
     inkscape:window-x="0"
     inkscape:window-y="0"
     inkscape:window-maximized="1"
     inkscape:current-layer="svg140" />
  <defs
     id="defs3051">
    <inkscape:path-effect
       effect="powerclip"
       id="path-effect818"
       is_visible="true"
       lpeversion="1"
       inverse="true"
       flatten="false"
       hide_clip="false"
       message="Use fill-rule evenodd on &lt;b&gt;fill and stroke&lt;/b&gt; dialog if no flatten result after convert clip to paths." />
    <style
       type="text/css"
       id="current-color-scheme">
      .ColorScheme-Text {
        color:#dedede;
      }
      </style>
    <clipPath
       clipPathUnits="userSpaceOnUse"
       id="clipPath814">
      <path
         fill="#ffffff"
         d="m 427.71,536.29 h 4 v 1 h -4 z"
         id="path816"
         style="display:none" />
      <path
         id="lpe_path-effect818"
         class="powerclip"
         d="m 419.71,528.79 h 20 v 22 h -20 z m 8,7.5 v 1 h 4 v -1 z" />
    </clipPath>
  </defs>
  <path
     style="fill:currentColor;fill-opacity:1;stroke:none"
     transform="translate(-421.71-531.79)"
     d="m 429.71,533.79 c -1.657,0 -3,1.343 -3,3 0,1.657 1.343,3 3,3 1.657,0 3,-1.343 3,-3 0,-1.657 -1.343,-3 -3,-3 m -2,2.5 h 4 v 1 h -4 z m 2,4.5 c -2.761,0 -5,2.01 -5,4.5 0.001,0.167 0.012,0.334 0.033,0.5 h 9.93 c 0.023,-0.166 0.035,-0.333 0.037,-0.5 0,-2.485 -2.239,-4.5 -5,-4.5 m 0,1 c 1.987,0.002 3.671,1.279 3.955,3 h -7.91 c 0.284,-1.721 1.968,-2.998 3.955,-3"
     class="ColorScheme-Text"
     id="path136"
     clip-path="url(#clipPath814)"
     inkscape:path-effect="#path-effect818"
     inkscape:original-d="m429.71 533.79c-1.657 0-3 1.343-3 3 0 1.657 1.343 3 3 3 1.657 0 3-1.343 3-3 0-1.657-1.343-3-3-3m-2 2.5h4v1h-4zm2 4.5c-2.761 0-5 2.01-5 4.5.001.167.012.334.033.5h9.93c.023-.166.035-.333.037-.5 0-2.485-2.239-4.5-5-4.5m0 1c1.987.002 3.671 1.279 3.955 3h-7.91c.284-1.721 1.968-2.998 3.955-3" />
</svg>
