<svg xmlns="http://www.w3.org/2000/svg" viewBox="0 0 16 16">
 <g color="#000" transform="translate(-421.71-531.79)">
  <path fill="#d48787" d="m425.71 535.79h2v2h-2z"/>
  <path fill="#aac69f" d="m423.71 539.79h2v2h-2z"/>
  <path fill="#f3dea4" d="m431.71 535.79h2v2h-2z"/>
  <path fill="#a0b6cb" d="m423.71 535.79h2v2h-2z"/>
  <path fill="#d19494" d="m429.71 535.79h2v2h-2z"/>
  <path fill="#aac69f" d="m427.71 535.79h2v2h-2z"/>
  <path fill="#f3dea4" d="m427.71 537.79h2v2h-2z"/>
  <path fill="#a0b6cb" d="m425.71 537.79h2v2h-2z"/>
  <path fill="#d19494" d="m423.71 537.79h2v2h-2z"/>
  <path fill="#aac69f" d="m431.71 537.79h2v2h-2z"/>
  <path fill="#d48787" d="m429.71 537.79h2v2h-2z"/>
  <path fill="#f3dea4" d="m431.71 539.79h2v2h-2z"/>
  <path fill="#a0b6cb" d="m429.71 539.79h2v2h-2z"/>
  <path fill="#d19494" d="m427.71 539.79h2v2h-2z"/>
  <path fill="#d48787" d="m425.71 539.79h2v2h-2z"/>
  <path fill="#f3dea4" d="m429.71 541.79h2v2h-2z"/>
  <path fill="#a0b6cb" d="m427.71 541.79h2v2h-2z"/>
  <path fill="#d19494" d="m425.71 541.79h2v2h-2z"/>
  <path fill="#aac69f" d="m431.71 541.79h2v2h-2z"/>
  <path fill="#f3dea4" d="m425.71 543.79h2v2h-2z"/>
  <path fill="#a0b6cb" d="m423.71 543.79h2v2h-2z"/>
  <path fill="#d19494" d="m433.71 537.79h2v2h-2z"/>
  <path fill="#a0b6cb" d="m433.71 539.79h2v2h-2z"/>
  <path fill="#d48787" d="m423.71 541.79h2v2h-2z"/>
  <path fill="#aac69f" d="m433.71 535.79h2v2h-2z"/>
  <path fill="#f3dea4" d="m423.71 533.79h2v2h-2z"/>
  <path fill="#a0b6cb" d="m427.71 533.79h2v2h-2z"/>
  <path fill="#d19494" d="m425.71 533.79h2v2h-2z"/>
  <path fill="#aac69f" d="m431.71 533.79h2v2h-2z"/>
  <path fill="#d48787" d="m433.71 533.79h2v2h-2z"/>
  <path fill="#f3dea4" d="m429.71 533.79h2v2h-2z"/>
  <path fill="#d19494" d="m433.71 541.79h2v2h-2z"/>
  <path fill="#f3dea4" d="m431.71 543.79h2v2h-2z"/>
  <path fill="#d19494" d="m429.71 543.79h2v2h-2z"/>
  <g fill="#aac69f">
   <path d="m427.71 543.79h2v2h-2z"/>
   <path d="m433.71 543.79h2v2h-2z"/>
  </g>
 </g>
</svg>
