<?xml version="1.0" encoding="UTF-8"?>
<svg id="svg4015" version="1.1" viewBox="0 0 22 22" xmlns="http://www.w3.org/2000/svg">
 <defs id="defs4011">
  <style id="current-color-scheme" type="text/css">.ColorScheme-Text {
        color:#dedede;
      }</style>
 </defs>
 <path id="path163" d="m17.073 6.9405c-0.10756-0.15911-0.06488-0.37511 0.09422-0.48266 0.15911-0.10756 0.376-0.06578 0.48355 0.093333 0.87997 1.3182 1.3493 2.8666 1.3493 4.4489 0 2.1217-0.84178 4.1564-2.344 5.656-1.4995 1.5022-3.5342 2.344-5.656 2.344-2.1218 0-4.1564-0.84175-5.656-2.344-1.5022-1.4995-2.344-3.5342-2.344-5.656 0-2.1217 0.84178-4.1564 2.344-5.656 1.4995-1.4986 3.5342-2.344 5.656-2.344 1.1893 0 2.3688 0.264 3.4436 0.77956 0.17244 0.081776 0.24622 0.28977 0.16355 0.46222-0.08267 0.17244-0.28978 0.24622-0.46311 0.16355-0.98041-0.46577-2.0551-0.70933-3.144-0.70933-1.9378 0-3.7947 0.76801-5.1653 2.1387-1.3707 1.3707-2.1387 3.2275-2.1387 5.1653 0 1.9378 0.76802 3.7947 2.1387 5.1653 1.3707 1.3707 3.2275 2.1387 5.1653 2.1387 1.9378 0 3.7947-0.76801 5.1653-2.1387 1.3707-1.3707 2.1387-3.2275 2.1387-5.1653 0-1.4471-0.42755-2.8595-1.2311-4.0596zm-7.9601 0.58311c0.02934 0.04 0.05778 0.076445 0.09422 0.10933l0.0035 0.00353 1.6889 1.688c0.14133 0.14222 0.14133 0.37245 0 0.51467l-2.2702 2.2702c-0.14311 0.14222-0.37333 0.14222-0.51467 0-0.14133-0.14311-0.14045-0.37422 0.0018-0.51644l2.0107-2.0107-1.4293-1.4293c-0.09422-0.090668-0.17422-0.19644-0.24355-0.30934-0.06844-0.11644-0.10489-0.25067-0.10845-0.38577 0-0.22489 0.12711-0.432 0.32356-0.54133 0.17422-0.090668 0.37066-0.13422 0.57067-0.12356h0.03999l4.4293 0.13422h0.0035c0.28711 0.010667 0.56 0.12711 0.76357 0.33067 0.20711 0.2 0.33422 0.46933 0.35289 0.75646v0.00353l0.27289 4.6186 0.0035 0.09067c0.01063 0.18578-0.02934 0.37511-0.12001 0.54222-0.10577 0.18844-0.30578 0.30844-0.52355 0.31289-0.13511-0.0044-0.26933-0.04444-0.38222-0.11289-0.11279-0.06578-0.21768-0.14933-0.30924-0.24355l-1.2365-1.2365-2.8924 2.8897c-0.28356 0.28356-0.74491 0.28356-1.0284-8.89e-4l-1.2711-1.2711c-0.14133-0.14222-0.14045-0.37334 0.0018-0.51466 0.14134-0.14133 0.37155-0.14222 0.51378-0.0018l1.0124 1.0151c0.14222 0.14222 0.37244 0.14311 0.51467 8.88e-4l2.8924-2.8898c0.14222-0.14133 0.37244-0.14133 0.51467 0l1.4951 1.496c0.0035 0.0036 0.0035 0.0036 0.0071 0.0071 0.02578 0.02578 0.05512 0.05066 0.08356 0.07644v-0.04356l-0.0035-0.08355-0.26844-4.607c-8e-3 -0.10933-0.05867-0.20799-0.13511-0.28444-0.07645-0.075557-0.17778-0.12-0.28711-0.12356l-4.4177-0.13418h-0.04355c-8e-3 0-0.01155 0-0.01867-0.00353-0.02932 0-0.05778 0-0.09066 0.00712z" clip-rule="evenodd" fill="#bdb3c1" fill-rule="evenodd" stroke-linejoin="round" stroke-miterlimit="1.4142" stroke-width="1.21" style="isolation:isolate"/>
</svg>
