<?xml version="1.0" encoding="UTF-8" standalone="no"?>
<!-- Created with Inkscape (http://www.inkscape.org/) -->

<svg
   id="svg5"
   width="5.8208mm"
   height="5.8208mm"
   version="1.1"
   viewBox="0 0 5.8208 5.8208"
   xml:space="preserve"
   sodipodi:docname="system-shutdown-update.svg"
   inkscape:version="1.2.2 (b0a8486541, 2022-12-01)"
   xmlns:inkscape="http://www.inkscape.org/namespaces/inkscape"
   xmlns:sodipodi="http://sodipodi.sourceforge.net/DTD/sodipodi-0.dtd"
   xmlns="http://www.w3.org/2000/svg"
   xmlns:svg="http://www.w3.org/2000/svg"><sodipodi:namedview
     id="namedview14"
     pagecolor="#ffffff"
     bordercolor="#000000"
     borderopacity="0.25"
     inkscape:showpageshadow="2"
     inkscape:pageopacity="0.0"
     inkscape:pagecheckerboard="0"
     inkscape:deskcolor="#d1d1d1"
     inkscape:document-units="mm"
     showgrid="false"
     inkscape:zoom="39.182044"
     inkscape:cx="7.9373093"
     inkscape:cy="10.999937"
     inkscape:window-width="1920"
     inkscape:window-height="1021"
     inkscape:window-x="0"
     inkscape:window-y="0"
     inkscape:window-maximized="1"
     inkscape:current-layer="svg5" /><defs
     id="defs2"><style
       id="current-color-scheme"
       type="text/css">.ColorScheme-Text {
        color:#cdcac6;
      }</style><linearGradient
       id="linearGradient6473"
       x1="-.45099"
       x2="19.436"
       y1="-.50954"
       y2="17.762"
       gradientUnits="userSpaceOnUse"
       gradientTransform="matrix(0.26458,0,0,0.26458,0.265,0.264)"><stop
         id="stop6467"
         stop-color="#d19494"
         offset="0" /><stop
         id="stop6475"
         stop-color="#d19494"
         stop-opacity=".6155"
         offset="0.65819001"
         style="stop-color:#d19494;stop-opacity:0.77479881;" /><stop
         id="stop6469"
         stop-color="#d19494"
         stop-opacity="0"
         offset="1" /></linearGradient></defs><rect
     id="rect823"
     x="0.00042"
     y="-0.00057999999"
     width="5.8207598"
     height="5.8207598"
     ry="0.24015662"
     fill-opacity="0"
     stroke-miterlimit="1.4142"
     stroke-width="0.236987"
     style="clip-rule:evenodd;fill-rule:evenodd;stroke-linejoin:round" /><path
     id="path141"
     d="M 5.019238,1.5006734 C 4.981885,1.4454214 4.996706,1.3704101 5.051956,1.3330619 c 0.055252,-0.037348 0.1305729,-0.022843 0.167921,0.032411 0.3055899,0.4577763 0.4685976,0.9954822 0.4685976,1.5449091 0,0.7368288 -0.292308,1.4433632 -0.8139804,1.9641361 C 4.3537743,5.3961905 3.647187,5.6884985 2.9103582,5.6884985 2.1735293,5.6884985 1.4669949,5.3961641 0.94622206,4.8745182 0.42454968,4.3537983 0.13224169,3.6472109 0.13224169,2.9103821 c 0,-0.7368289 0.29233445,-1.4433633 0.81398037,-1.96413611 C 1.466942,0.42579067 2.1735293,0.13226562 2.9103582,0.13226562 c 0.4130093,0 0.8226321,0.091677 1.1958222,0.2706918 0.059885,0.0283974 0.085504,0.10062771 0.0568,0.16051274 -0.02871,0.0598824 -0.1006277,0.0855043 -0.1608223,0.0568 C 3.6616701,0.45852451 3.28848,0.37394357 2.9103423,0.37394357 c -0.6729328,0 -1.3177672,0.26669664 -1.7937201,0.74264963 -0.47600591,0.4760059 -0.74264964,1.1207873 -0.74264964,1.7937201 0,0.6729063 0.26669664,1.3177407 0.74264964,1.7937201 0.4760058,0.475953 1.1208402,0.7426496 1.7937201,0.7426496 0.6729327,0 1.3177671,-0.2666966 1.7937201,-0.7426496 C 5.1800153,4.2280275 5.446712,3.5832461 5.446712,2.9103133 c 0,-0.5025168 -0.1484744,-0.9929952 -0.4275084,-1.4097616 z m -2.0839114,-0.3525 c 0.069759,0 0.1262496,0.056485 0.1262496,0.1262497 v 1.7535833 c 0,0.069452 -0.056491,0.126247 -0.1262496,0.126247 -0.069762,0 -0.1262497,-0.0568 -0.1262497,-0.126247 V 1.2744231 c 0,-0.069762 0.056491,-0.1262497 0.1262497,-0.1262497 z M 3.4785887,1.9778963 C 3.416542,1.9464113 3.3915419,1.8707864 3.4230269,1.8087397 c 0.031482,-0.062047 0.1071099,-0.087049 0.1691566,-0.055562 0.2500307,0.1262497 0.4608454,0.3194804 0.6074756,0.5580786 0.147551,0.2386062 0.2259566,0.5127032 0.2259566,0.7929728 0,0.069452 -0.00494,0.1376689 -0.01389,0.2058855 C 4.3626431,3.6724836 4.1833002,4.0058544 3.9079385,4.2469662 3.631373,4.4883531 3.2776296,4.6207648 2.9115302,4.6220083 c -0.068217,0 -0.1376742,-0.00494 -0.2046552,-0.01389 C 2.3432627,4.5590383 2.0098654,4.3796954 1.7687801,4.104384 1.5273932,3.8277921 1.3949815,3.4743661 1.3949815,3.1079757 c 0,-0.06945 0.0037,-0.1376689 0.013891,-0.2058856 0.07069,-0.5265935 0.4142529,-0.9772791 0.9016357,-1.1880965 0.064206,-0.027164 0.1385976,0.00247 0.166069,0.066367 0.027471,0.063586 -0.00156,0.1379785 -0.065134,0.1660689 -0.4065537,0.1753319 -0.693279,0.5515964 -0.7525714,0.9899526 -0.00772,0.0568 -0.011421,0.1135947 -0.011421,0.1716251 0,0.3043463 0.1111263,0.5997499 0.3120721,0.8297228 0.200639,0.2296581 0.4784665,0.3787728 0.7803523,0.4191741 0.0568,0.00771 0.1148303,0.012655 0.1716251,0.012655 C 3.21709,4.3683158 3.51125,4.2584357 3.7412494,4.0562437 3.9709075,3.8556047 4.1200221,3.5777772 4.1616935,3.2758914 c 0.00772,-0.0568 0.011422,-0.1135895 0.011422,-0.1716251 0,-0.4747359 -0.2704007,-0.9118485 -0.6945225,-1.1263435 z"
     fill="url(#linearGradient6473)"
     fill-rule="evenodd"
     stroke-width="0.31784"
     style="clip-rule:evenodd;isolation:isolate;stroke-linejoin:round;stroke-miterlimit:1.4142" /><path
     id="path5-2"
     class="ColorScheme-Text"
     d="m4.1856 2.1516-1.5108 1.5108h0.75541v1.8885h1.5108v-1.8885h0.75541z"
     color="#c2a3ae"
     fill="#d19494"
     fill-opacity=".99396"
     stroke-width=".26458" /></svg>
