<?xml version="1.0" encoding="UTF-8"?>
<!-- Created with Inkscape (http://www.inkscape.org/) -->
<svg id="svg5" width="5.8208mm" height="5.8208mm" version="1.1" viewBox="0 0 5.8208 5.8208" xml:space="preserve" xmlns="http://www.w3.org/2000/svg"><defs id="defs2"><style id="current-color-scheme" type="text/css">.ColorScheme-Text {
        color:#cdcac6;      }</style>[
    ></defs><g id="layer1" transform="translate(-100.68 -71.913)"><g id="22-22-system-switch-user" transform="matrix(.26458 0 0 .26458 100.94 72.111)" clip-rule="evenodd" fill-rule="evenodd" stroke-linejoin="round" stroke-miterlimit="1.4142"><rect id="rect818" x="-1" y="-.74999" width="22" height="22" rx=".9112" ry=".9112" fill="none" stroke-miterlimit="1.4142" stroke-width=".96276"/><g id="g4417" transform="translate(7.2878 -.1096)"><g id="g344" transform="matrix(1.1875 0 0 1.1875 -.49113 -1.9408)"><path id="path141-7-8" d="m9.4244 5.8728c-0.11906-0.17586-0.07184-0.4146 0.10401-0.53347 0.17587-0.11888 0.41564-0.072726 0.53445 0.10312 0.97262 1.457 1.4914 3.1683 1.4914 4.9171 0 2.3451-0.93039 4.5939-2.5907 6.2514-1.6573 1.6603-3.9062 2.5907-6.2514 2.5907-2.345 0-4.5939-0.93042-6.2514-2.5907-1.6603-1.6573-2.5907-3.9062-2.5907-6.2514 0-2.3451 0.93039-4.5939 2.5907-6.2514 1.6573-1.6565 3.9062-2.5907 6.2514-2.5907 1.3146 0 2.6183 0.29179 3.806 0.86156 0.19049 0.09041 0.27195 0.32028 0.18089 0.51087-0.091516 0.19057-0.3204 0.27216-0.51186 0.18075-1.0837-0.5148-2.2714-0.784-3.4749-0.784-2.1418 0-4.194 0.84881-5.709 2.3637-1.515 1.515-2.3637 3.5672-2.3637 5.709 0 2.1417 0.84884 4.194 2.3637 5.709 1.515 1.5149 3.5673 2.3637 5.709 2.3637 2.1418 0 4.1941-0.84884 5.709-2.3637 1.5149-1.5149 2.3637-3.5672 2.3637-5.709 0-1.5994-0.47259-3.1605-1.3607-4.4869z" clip-rule="evenodd" fill="#9fbac6" fill-rule="evenodd" stroke-linejoin="round" stroke-miterlimit="1.4142" stroke-width="1.0116" style="isolation:isolate"/><path id="path3394" d="m0.28663 5.1621a1.7325 1.7325 0 0 0-1.7325 1.7325 1.7325 1.7325 0 0 0 1.7325 1.7325 1.7325 1.7325 0 0 0 1.7325-1.7325 1.7325 1.7325 0 0 0-1.7325-1.7325zm0 0.693a1.0395 1.0395 0 0 1 1.0395 1.0395 1.0395 1.0395 0 0 1-1.0395 1.0395 1.0395 1.0395 0 0 1-1.0395-1.0395 1.0395 1.0395 0 0 1 1.0395-1.0395zm4.851 1.386a1.7325 1.7325 0 0 0-1.7325 1.7325 1.7325 1.7325 0 0 0 1.7325 1.7325 1.7325 1.7325 0 0 0 1.7325-1.7325 1.7325 1.7325 0 0 0-1.7325-1.7325zm0 0.693a1.0395 1.0395 0 0 1 1.0395 1.0395 1.0395 1.0395 0 0 1-1.0395 1.0395 1.0395 1.0395 0 0 1-1.0395-1.0395 1.0395 1.0395 0 0 1 1.0395-1.0395zm-5.8905 1.386c-1.1518 0-2.079 0.92723-2.079 2.079v1.386c0 0.38392 0.30907 0.693 0.693 0.693h3.4649c0-0.23949 0.030041-0.47163 0.086625-0.693h-3.5516v-1.386c0-0.76784 0.61816-1.386 1.386-1.386h2.079c0.66357 0 1.2145 0.46182 1.3522 1.0828 0.19962-0.1188 0.41599-0.21419 0.64427-0.28017-0.25092-0.86611-1.0473-1.4956-1.9964-1.4956h-2.079zm4.851 2.079c-1.1518 0-2.079 0.92723-2.079 2.079v1.386c0 0.38392 0.30907 0.693 0.693 0.693h4.851c0.38392 0 0.693-0.30907 0.693-0.693v-1.386c0-1.1518-0.92723-2.079-2.079-2.079zm0 0.693h2.079c0.76784 0 1.386 0.61816 1.386 1.386v1.386h-4.851v-1.386c0-0.76784 0.61816-1.386 1.386-1.386z" fill="#9fbac6" fill-opacity=".86667" stroke-width=".8421"/></g></g></g></g></svg>
