<?xml version="1.0" encoding="UTF-8"?>
<!-- Created with Inkscape (http://www.inkscape.org/) -->
<svg id="svg5" width="5.8208mm" height="5.8208mm" version="1.1" viewBox="0 0 5.8208 5.8208" xml:space="preserve" xmlns="http://www.w3.org/2000/svg"><defs id="defs2"><style id="current-color-scheme" type="text/css">.ColorScheme-Text {
        color:#cdcac6;
      }</style></defs><g id="layer1" transform="translate(-81.099 -71.913)"><g id="22-22-system-shutdown" transform="matrix(.26458 0 0 .26458 81.364 72.177)" clip-rule="evenodd" fill-rule="evenodd" stroke-linejoin="round" stroke-miterlimit="1.4142"><rect id="rect823" x="-1" y="-1" width="22" height="22" ry=".90769" fill-opacity="0" stroke-miterlimit="1.4142" stroke-width=".89571"/><path id="path141" d="m17.969 4.6741c-0.14118-0.20883-0.08516-0.49234 0.12366-0.6335 0.20883-0.14116 0.49351-0.086336 0.63467 0.1225 1.155 1.7302 1.7711 3.7625 1.7711 5.8391 0 2.7849-1.1048 5.4553-3.0765 7.4236-1.9681 1.9717-4.6387 3.0765-7.4236 3.0765-2.7849 0-5.4553-1.1049-7.4236-3.0765-1.9717-1.9681-3.0765-4.6387-3.0765-7.4236 0-2.7849 1.1049-5.4553 3.0765-7.4236 1.9681-1.9671 4.6387-3.0765 7.4236-3.0765 1.561 0 3.1092 0.3465 4.5197 1.0231 0.22634 0.10733 0.32317 0.38033 0.21468 0.60667-0.10851 0.22633-0.38033 0.32317-0.60784 0.21468-1.2869-0.61133-2.6974-0.93101-4.1266-0.93101-2.5434 0-4.9806 1.008-6.7795 2.8069-1.7991 1.7991-2.8069 4.2361-2.8069 6.7795 0 2.5433 1.008 4.9805 2.8069 6.7795 1.7991 1.7989 4.2363 2.8069 6.7795 2.8069 2.5434 0 4.9806-1.008 6.7795-2.8069 1.7989-1.7991 2.8069-4.2361 2.8069-6.7795 0-1.8993-0.56117-3.7531-1.6158-5.3283zm-7.8763-1.3323c0.26366 0 0.47717 0.21349 0.47717 0.47717v6.6278c0 0.2625-0.21351 0.47716-0.47717 0.47716-0.26367 0-0.47717-0.21468-0.47717-0.47716v-6.6278c0-0.26367 0.21351-0.47717 0.47717-0.47717zm2.0533 3.136c-0.23451-0.119-0.329-0.40483-0.21-0.63934 0.11899-0.23451 0.40483-0.32901 0.63934-0.21 0.94501 0.47717 1.7418 1.2075 2.296 2.1093 0.55768 0.90183 0.85402 1.9378 0.85402 2.9971 0 0.2625-0.01866 0.52033-0.0525 0.77816-0.18551 1.3696-0.86335 2.6296-1.9041 3.5409-1.0453 0.91234-2.3823 1.4128-3.766 1.4175-0.25783 0-0.52035-0.01866-0.77351-0.0525-1.3743-0.1855-2.6344-0.86334-3.5456-1.9039-0.91234-1.0454-1.4128-2.3812-1.4128-3.766 0-0.26249 0.014001-0.52033 0.052501-0.77816 0.26718-1.9903 1.5657-3.6937 3.4078-4.4905 0.24267-0.10267 0.52384 0.00935 0.62767 0.25084 0.10383 0.24033-0.0059 0.5215-0.24618 0.62767-1.5366 0.66268-2.6203 2.0848-2.8444 3.7416-0.029164 0.21468-0.043165 0.42934-0.043165 0.64867 0 1.1503 0.42001 2.2668 1.1795 3.136 0.75833 0.86801 1.8084 1.4316 2.9494 1.5843 0.21468 0.02915 0.43401 0.04783 0.64867 0.04783 1.155-0.0047 2.2668-0.42 3.1361-1.1842 0.86801-0.75833 1.4316-1.8084 1.5891-2.9494 0.02916-0.21468 0.04317-0.42932 0.04317-0.64867 0-1.7943-1.022-3.4464-2.625-4.2571z" fill="#d19494" fill-rule="evenodd" stroke-width="1.2013" style="isolation:isolate"/></g></g></svg>
