<?xml version="1.0" encoding="UTF-8"?>
<!-- Created with Inkscape (http://www.inkscape.org/) -->
<svg id="svg5" width="5.8208mm" height="5.8208mm" version="1.1" viewBox="0 0 5.8208 5.8208" xml:space="preserve" xmlns="http://www.w3.org/2000/svg"><defs id="defs2"><style id="current-color-scheme" type="text/css">.ColorScheme-Text {
        color:#cdcac6;
      }</style></defs><g id="layer1" transform="translate(-71.31 -71.913)"><g id="22-22-system-lock-screen" transform="matrix(.26458 0 0 .26458 71.434 73.447)" clip-rule="evenodd" fill-rule="evenodd" stroke-linejoin="round" stroke-miterlimit="1.4142"><rect id="rect817-27" x="-.4694" y="-5.7992" width="22" height="22" rx="1.1683" ry="1.1683" fill-opacity="0" stroke-width="1.1597"/><g id="g3059" transform="matrix(3.7795 0 0 3.7795 -425.16 -370.53)" fill-rule="evenodd"><g id="g813" transform="matrix(1.3125 0 0 1.3125 -36.021 -31.066)" clip-rule="evenodd" fill="#c2a3ae" fill-rule="evenodd" stroke-linejoin="round" stroke-miterlimit="1.4142"><path id="path141-7" d="m116.88 98.337c-0.0285-0.0421-0.0172-0.09925 0.0249-0.1277 0.0421-0.02846 0.0995-0.0174 0.12794 0.02469 0.23283 0.34877 0.35702 0.75846 0.35702 1.1771 0 0.56138-0.22272 1.0997-0.62018 1.4965-0.39675 0.39746-0.9351 0.62019-1.4965 0.62019-0.56138 0-1.0997-0.22273-1.4965-0.62019-0.39746-0.39674-0.62018-0.93508-0.62018-1.4965 0-0.56138 0.22272-1.0997 0.62018-1.4965 0.39675-0.39653 0.9351-0.62019 1.4965-0.62019 0.31469 0 0.62678 0.06985 0.9111 0.20625 0.0456 0.02164 0.0651 0.07667 0.0433 0.1223-0.0219 0.04562-0.0767 0.06515-0.12253 0.04327-0.25942-0.12324-0.54375-0.18768-0.83186-0.18768-0.51271 0-1.004 0.20319-1.3666 0.56584-0.36266 0.36265-0.56584 0.85394-0.56584 1.3667 0 0.51269 0.2032 1.004 0.56584 1.3666 0.36267 0.36265 0.85396 0.56585 1.3666 0.56585 0.51271 0 1.004-0.2032 1.3666-0.56585s0.56585-0.85394 0.56585-1.3666c0-0.38288-0.11313-0.75658-0.32574-1.0741z" stroke-width=".24216" style="isolation:isolate"/><path id="path2-76-3-3-8" class="ColorScheme-Text" d="m115.28 97.959c-0.44505 0-0.8063 0.35135-0.8063 0.78427v0.62741h-0.32253v1.4117h2.2577v-1.4117h-0.32253v-0.62741c0-0.43292-0.36123-0.78427-0.80633-0.78427zm0 0.15685c0.3561 0 0.64507 0.28108 0.64507 0.62741v0.62741h-0.16128v-0.62741c0-0.25975-0.21674-0.47056-0.48379-0.47056s-0.48378 0.21081-0.48378 0.47056v0.62741h-0.16126v-0.62741c0-0.34633 0.28897-0.62741 0.64504-0.62741zm0 0.31371c0.17805 0 0.32253 0.14054 0.32253 0.31371v0.62741h-0.64504v-0.62741c0-0.17317 0.14451-0.31371 0.32251-0.31371zm-0.96757 1.098h1.9352v1.098h-1.9352z" color="#cdcac6" stroke-width=".20158"/></g></g></g></g></svg>
