<?xml version="1.0" encoding="UTF-8"?>
<!-- Created with Inkscape (http://www.inkscape.org/) -->
<svg id="svg5" width="5.8208mm" height="5.8208mm" version="1.1" viewBox="0 0 5.8208 5.8208" xml:space="preserve" xmlns="http://www.w3.org/2000/svg"><defs id="defs2"><style id="current-color-scheme" type="text/css">.ColorScheme-Text {
        color:#cdcac6;
        }</style></defs><g id="layer1" transform="translate(-120.26 -71.913)"><g id="22-22-system-reboot" transform="matrix(.26458 0 0 .26458 120.35 72.086)" clip-rule="evenodd" fill-rule="evenodd" stroke-linejoin="round" stroke-miterlimit="1.4142"><rect id="rect817-7" x="-.33177" y="-.65414" width="22" height="22" fill-opacity="0" stroke-width=".78285"/><g id="g495" transform="matrix(1.3125 0 0 1.3126 .15768 .26682)"><path id="path32" d="m4.1756 7.9014c0-2.053 1.714-3.719 3.826-3.719s3.826 1.666 3.826 3.719-1.714 3.72-3.826 3.72-3.826-1.667-3.826-3.72z" fill="none" stroke="#deb68c" stroke-linecap="square" stroke-linejoin="miter" stroke-miterlimit="3" stroke-width=".64973" style="isolation:isolate"/><path id="path39" d="m4.5496 1.642c1.06-0.553 2.246-0.84202 3.452-0.84202 1.283 0 2.546 0.328 3.659 0.954 0.165 0.093 0.377 0.038002 0.473-0.124 0.096-0.161 0.03998-0.368-0.125-0.461-1.217-0.687-2.602-1.045-4.007-1.045-1.376 0-2.728 0.345-3.927 1.001l0.172-0.98602c0.036975-0.214-0.112-0.418-0.333-0.454s-0.43 0.108-0.46699 0.323l-0.242 1.403c-0.075 0.435 0.218 0.846 0.653 0.91702l1.466 0.241c0.221 0.036 0.43-0.109 0.468-0.324 0.036975-0.214-0.112-0.418-0.333-0.454zm-2.858 9.837c0.096 0.161 0.039975 0.368-0.125 0.462-0.165 0.094-0.378 0.04-0.476-0.12-0.71299-1.191-1.089-2.543-1.089-3.92 0-1.237 0.303-2.455 0.88297-3.557 0.088995-0.166 0.29899-0.231 0.46999-0.145 0.171 0.084998 0.238 0.29 0.15 0.456-0.53299 1.004-0.807 2.117-0.807 3.246 0 1.258 0.341 2.493 0.99397 3.578zm9.99 2.557c0.165-0.094 0.378-0.039 0.475 0.121 0.09701 0.161 0.04103 0.369-0.124 0.464-1.224 0.693-2.615 1.058-4.031 1.058-1.367 0-2.717-0.341-3.91-0.99098-0.167-0.091-0.226-0.297-0.132-0.46 0.093997-0.162 0.306-0.221 0.47299-0.131 1.089 0.595 2.32 0.906 3.569 0.906 1.294 0 2.563-0.332 3.68-0.96698zm2.904-9.2077c-0.082-0.168-9e-3 -0.37 0.164-0.45 0.173-0.080002 0.381-9e-3 0.466 0.159 0.518 1.048 0.786 2.198 0.786 3.364 0 1.326-0.348 2.628-1.012 3.788-0.094 0.162-0.306 0.221-0.473 0.13-0.167-0.09-0.228-0.297-0.136-0.462 0.609-1.055 0.92498-2.245 0.92498-3.456 0-1.065-0.243-2.113-0.72-3.073zm-1.193-1.83c0-0.187 0.156-0.338 0.348-0.338s0.348 0.151 0.348 0.338-0.156 0.338-0.348 0.338-0.348-0.151-0.348-0.338zm-0.348 10.145c0-0.187 0.156-0.338 0.348-0.338s0.348 0.151 0.348 0.338-0.156 0.338-0.348 0.338-0.348-0.151-0.348-0.338zm-11.13 0c0-0.187 0.156-0.338 0.348-0.338s0.348 0.151 0.348 0.338-0.156 0.338-0.348 0.338-0.348-0.151-0.348-0.338z" fill="#deb68c" fill-rule="evenodd" stroke-width="1.0158" style="isolation:isolate"/></g></g></g></svg>
