<?xml version="1.0" encoding="UTF-8"?>
<!-- Created with Inkscape (http://www.inkscape.org/) -->
<svg id="svg5" width="5.8208mm" height="5.8208mm" version="1.1" viewBox="0 0 5.8208 5.8208" xml:space="preserve" xmlns="http://www.w3.org/2000/svg"><defs id="defs2"><style id="current-color-scheme" type="text/css">.ColorScheme-Text {
        color:#cdcac6;
      }</style></defs><g id="layer1" transform="translate(-90.889 -71.913)"><g id="22-22-system-log-out" transform="matrix(-.26458 0 0 .26458 96.71 71.913)" clip-rule="evenodd" fill-rule="evenodd" stroke-linejoin="round" stroke-miterlimit="1.4142"><rect id="rect817-20" width="22" height="22" ry=".99578" fill-opacity="0" stroke-miterlimit="1.4142"/><path id="path163" d="m3.03 5.6718c0.14116-0.20883 0.085164-0.49234-0.12367-0.6335-0.20884-0.14117-0.49351-0.086337-0.63467 0.1225-1.155 1.7302-1.771 3.7625-1.771 5.8393 0 2.7848 1.1048 5.4553 3.0765 7.4236 1.9681 1.9717 4.6386 3.0765 7.4236 3.0765 2.7849 0 5.4554-1.1048 7.4236-3.0765 1.9716-1.9681 3.0765-4.6387 3.0765-7.4236 0-2.7848-1.1048-5.4553-3.0765-7.4236-1.9681-1.9669-4.6386-3.0765-7.4236-3.0765-1.561 0-3.1092 0.3465-4.5198 1.0232-0.22634 0.10733-0.32317 0.38033-0.21467 0.60667 0.10851 0.22633 0.38034 0.32317 0.60784 0.21466 1.2868-0.61133 2.6974-0.93101 4.1266-0.93101 2.5434 0 4.9805 1.008 6.7795 2.8071 1.799 1.7991 2.8071 4.2361 2.8071 6.7795 0 2.5434-1.008 4.9806-2.8071 6.7795-1.799 1.7991-4.2362 2.8071-6.7795 2.8071-2.5434 0-4.9805-1.008-6.7795-2.8071-1.799-1.7991-2.8071-4.2361-2.8071-6.7795 0-1.8993 0.56117-3.7531 1.6158-5.3283zm10.448 0.76534c-0.03849 0.052501-0.07583 0.10034-0.12367 0.1435l-0.0047 0.00463-2.2167 2.2155c-0.1855 0.18667-0.1855 0.48885 0 0.67551l2.9797 2.9797c0.18783 0.18667 0.49 0.18667 0.67551 0 0.18549-0.18783 0.18434-0.49117-0.0023-0.67784l-2.639-2.6391 1.876-1.876c0.12367-0.119 0.22868-0.25783 0.31967-0.40601 0.08983-0.15283 0.13766-0.32901 0.14234-0.50633 0-0.29517-0.16684-0.56701-0.42468-0.7105-0.22865-0.119-0.48648-0.17616-0.74898-0.16217h-0.0525l-5.8135 0.17617h-0.00466c-0.37677 0.014002-0.73494 0.16683-1.0021 0.43401-0.27183 0.2625-0.43867 0.616-0.46317 0.99287v0.00464l-0.35817 6.062-0.00464 0.11901c-0.013999 0.24384 0.038501 0.49234 0.15751 0.71167 0.13884 0.24733 0.40134 0.40483 0.68717 0.41067 0.17733-6e-3 0.35351-0.05833 0.50167-0.14817 0.14817-0.08632 0.28584-0.196 0.406-0.31966l1.6229-1.6229 3.7963 3.7928c0.37218 0.37218 0.97771 0.37218 1.3499-0.0012l1.6684-1.6684c0.18549-0.18667 0.18433-0.49002-0.0023-0.6755-0.18551-0.1855-0.48766-0.18667-0.67435-0.0022l-1.3288 1.3323c-0.18667 0.18667-0.48883 0.18783-0.67551 0.0012l-3.7965-3.7931c-0.18667-0.1855-0.48883-0.1855-0.67551 0l-1.9623 1.9635c-0.00465 0.0048-0.00465 0.0048-0.0093 0.0093-0.03384 0.03383-0.072332 0.06651-0.10967 0.10034v-0.05718l0.00466-0.10966 0.35234-6.0469c0.010462-0.14346 0.076993-0.27296 0.17734-0.3733 0.10034-0.09917 0.23334-0.1575 0.37684-0.16217l5.7984-0.17611h0.05717c0.0105 0 0.01516 0 0.0245-0.00464 0.03849 0 0.07583 0 0.11899 0.00933z" fill="#bdb3c1" fill-rule="evenodd" stroke-width="1.21" style="isolation:isolate"/></g></g></svg>
