<?xml version="1.0" encoding="UTF-8"?>
<!-- Created with Inkscape (http://www.inkscape.org/) -->
<svg id="svg5" width="5.8208mm" height="5.8208mm" version="1.1" viewBox="0 0 5.8208 5.8208" xml:space="preserve" xmlns="http://www.w3.org/2000/svg"><defs id="defs2"><style id="current-color-scheme" type="text/css">.ColorScheme-Text {
        color:#cdcac6;}
      }</style></defs><g id="layer1" transform="translate(-61.52 -71.913)"><g id="22-22-system-suspend-hibernate" class="ColorScheme-Text" transform="matrix(.17891 0 0 .1819 62.409 72.651)" fill="#f3dea4"><g id="g426" transform="matrix(.98327 0 0 .99999 -3.7035 -3.6353)"><path id="path36" d="m27.245 7.8282c-0.21232-0.30376-0.12809-0.71612 0.186-0.92145 0.3141-0.20533 0.74226-0.12558 0.95458 0.17818 1.7372 2.5166 2.6637 5.4727 2.6637 8.4933 0 4.0507-1.6617 7.935-4.6272 10.798-2.9602 2.8679-6.9768 4.4749-11.165 4.4749-4.1886 0-8.2052-1.607-11.165-4.4749-2.9655-2.8628-4.6272-6.7472-4.6272-10.798 0-4.0507 1.6617-7.935 4.6272-10.798 2.9602-2.8611 6.9768-4.4749 11.165-4.4749 2.3478 0 4.6764 0.504 6.7979 1.4882 0.34042 0.15612 0.48606 0.55321 0.32287 0.88243-0.16319 0.32921-0.57204 0.47006-0.91422 0.31224-1.9355-0.88921-4.057-1.3542-6.2065-1.3542-3.8253 0-7.491 1.4662-10.197 4.0829-2.7058 2.6167-4.2219 6.1617-4.2219 9.8611s1.5161 7.2444 4.2219 9.8611 6.3715 4.0829 10.197 4.0829c3.8253 0 7.491-1.4662 10.197-4.0829 2.7058-2.6167 4.2219-6.1617 4.2219-9.8611 0-2.7627-0.84403-5.4592-2.4303-7.7501z" stroke-width="1.7402" style="isolation:isolate"/><path id="path1248" d="m8.8433 3.707-1.2392 0.7334 2.3527 4.1798-3.2123-0.88238-0.37119 1.4181 4.5938 1.2634 2.2439 3.985h-4.485l-3.363-3.4522-1.0103 1.0371 2.3527 2.4151h-4.7055v1.4668h4.7055l-2.3527 2.4151 1.0103 1.0371 3.363-3.4522h4.4766l-2.2383 3.9793-4.5938 1.2634 0.3684 1.4181 3.2151-0.88524-2.3527 4.1827 1.2364 0.7334 2.3527-4.1827 0.86239 3.3003 1.3787-0.38103-1.2308-4.7184 2.6514-4.7098h0.0084l2.6542 4.7213-1.2308 4.7156 1.3815 0.37816 0.8596-3.2975 2.3527 4.1827 1.2392-0.7334-2.3527-4.1827 3.2123 0.88238 0.37119-1.4152-4.5938-1.2634-2.2439-3.9879h4.485l3.363 3.4522 1.0103-1.0371-2.3527-2.4151h4.7055v-1.4668h-4.7055l2.3527-2.4151-0.07256-0.08594h-1.8615l-2.4393 2.501h-6.1344v-0.0029l-0.0056-0.0029-2.6486-4.7127 1.2308-4.7156-1.3815-0.38103-0.8596 3.3003z" stroke-width=".29241" style="isolation:isolate"/><path id="rect887-61" d="m19.35 6.2908v0.74063h1.6648l-1.6648 1.6982v0.52365h2.9042v-0.74063h-1.6648l1.6648-1.6982v-0.52365h-0.51333z" stroke-width=".20169" style="isolation:isolate"/><path id="rect887-8" d="m15.617 9.7533v0.73369h1.6137l-1.6137 1.6823v0.51874h2.815v-0.73369h-1.6137l1.6137-1.6823v-0.51874h-0.49756z" stroke-width=".20169" style="isolation:isolate"/></g><rect id="rect818-9-2" transform="matrix(5.5895 0 0 5.4975 -626.85 -349.52)" x="111.26" y="62.84" width="5.8208" height="5.8208" rx=".24109" ry=".24109" clip-rule="evenodd" fill-opacity="0" stroke-linejoin="round" stroke-miterlimit="1.4142" stroke-width=".25473"/></g></g></svg>
