<?xml version="1.0" encoding="UTF-8"?>
<svg id="svg859" version="1.1" viewBox="0 0 16 16" xmlns="http://www.w3.org/2000/svg">
 <defs id="defs3051">
  <style id="current-color-scheme" type="text/css">.ColorScheme-Text {  color:#dedede; }</style>
 </defs>
 <g id="layer1">
  <path id="path289" class="ColorScheme-Text" d="m8 2a6 6 0 0 0-6 6 6 6 0 0 0 6 6 6 6 0 0 0 3.668-1.2695l2.0488 2.0488a0.75 0.75 0 0 0 1.0625 0 0.75 0.75 0 0 0 0-1.0625l-2.0488-2.0488a6 6 0 0 0 1.2695-3.668 6 6 0 0 0-6-6zm0 1a5 5 0 0 1 5 5 5 5 0 0 1-5 5 5 5 0 0 1-5-5 5 5 0 0 1 5-5zm0 2v3h3v-3h-3zm0 3h-3v3h3v-3z" fill="currentColor" style="paint-order:markers stroke fill"/>
 </g>
</svg>
