<?xml version="1.0" encoding="UTF-8"?>
<svg width="24" height="24" viewBox="0 0 24 24" xmlns="http://www.w3.org/2000/svg">
 <defs id="defs3051">
  <style id="current-color-scheme" type="text/css">.ColorScheme-Text {
        color:#dedede;
      }</style>
 </defs>
 <g transform="translate(1,1)">
  <path class="ColorScheme-Text" d="m3 3.002v15.998h16v-15.998h-16zm1 0.99805h14v14h-14v-14zm6.9004 0.70117-0.80078 0.59961 1.2754 1.6992h-1.375v1h1v3h-1.8828l0.10547-0.052734-0.44531-0.89453-0.77734 0.38867v-2.4414h1v-1h-1v-2h-1v2h-2v1h2v2.9414l-2.2227 1.1113 0.44531 0.89453 1.7773-0.88867v3.9414h-2v1h3v-5.4414l1-0.5v0.94141h1.9609c-0.088677 0.89503-0.39165 1.6115-0.79297 2.3066-0.49732 0.8613-1.5098 1.8301-1.5098 1.8301l0.68359 0.72852s1.0707-0.98359 1.6914-2.0586c0.44869-0.77721 0.82964-1.6879 0.92578-2.8066h2.041v5h1v-5h2v-1h-2v-3h2v-1h-2.375l1.2754-1.6992-0.80078-0.59961-1.5 2 0.39844 0.29883h-1.9961l0.39844-0.29883-1.5-2zm1.0996 3.2988h2v3h-2v-3z" fill="currentColor"/>
 </g>
</svg>
