<?xml version="1.0" encoding="UTF-8"?>
<svg width="24" height="24" viewBox="0 0 24 24" xmlns="http://www.w3.org/2000/svg">
 <style id="current-color-scheme" type="text/css">.ColorScheme-Text {
        color:#dedede;
      }
      .ColorScheme-Background {
        color:#eff0f1;
      }
      .ColorScheme-Highlight {
        color:#a0b6cb;
      }
      .ColorScheme-ButtonText {
        color:#dedede;
      }</style>
 <g transform="translate(1,1)">
  <g id="22-22-input-keyboard-virtual-on" transform="translate(0 7e-6)">
   <path class="ColorScheme-Text" transform="translate(0 -1030.4)" d="m2 1038.4v11h18v-11zm1 1h16v1h-16zm0 2h16v7h-16zm1 1v1h2v-1zm3 0v1h2v-1zm3 0v1h2v-1zm3 0v1h2v-1zm3 0v1h2v-1zm-12 2v1h2v-1zm3 0v1h2v-1zm3 0v1h2v-1zm3 0v1h2v-1zm3 0v1h2v-1zm-12 2v1h2v-1zm3 0v1h8v-1zm9 0v1h2v-1z" fill="currentColor"/>
   <path d="m4.5 2a2.5 2.5 0 0 0-2.5 2.5 2.5 2.5 0 0 0 2.5 2.5 2.5 2.5 0 0 0 2.5-2.5 2.5 2.5 0 0 0-2.5-2.5z" fill="#a3cf94"/>
   <rect width="22" height="22" fill="none"/>
  </g>
 </g>
</svg>
