<?xml version="1.0" encoding="UTF-8"?>
<svg width="24" height="24" viewBox="0 0 24 24" xmlns="http://www.w3.org/2000/svg">
 <style id="current-color-scheme" type="text/css">.ColorScheme-Text {
        color:#dedede;
      }
      .ColorScheme-Background {
        color:#eff0f1;
      }
      .ColorScheme-Highlight {
        color:#a0b6cb;
      }
      .ColorScheme-ButtonText {
        color:#dedede;
      }</style>
 <g transform="translate(1,1)">
  <g id="kpackagekit-updates" transform="translate(0 2.6645e-15)">
   <g id="g4220">
    <path id="path4149" class="ColorScheme-Text" d="m7 7-3 3v9h5.0996 3.9004 5.0996v-9l-3-3h-2.0996-3.9004zm0.3 1h3.7 3.7l2 2h-11.4zm1.7 3h4v5l-1-1-1 1-1-1-1 1z" fill="currentColor" fill-rule="evenodd"/>
    <path id="path4180" d="m16 3a3 3 0 0 0-3 3 3 3 0 0 0 3 3 3 3 0 0 0 3-3 3 3 0 0 0-3-3z" fill="#aac69f"/>
    <path id="path4167" class="ColorScheme-Background" d="m16 4 2 2h-1v2h-2v-2h-1l2-2z" fill="currentColor"/>
   </g>
   <rect id="rect4212" y="-2.6645e-15" width="22" height="22" fill="none"/>
  </g>
 </g>
</svg>
