<?xml version="1.0" encoding="UTF-8"?>
<svg width="24" height="24" version="1.1" viewBox="0 0 24 24" xmlns="http://www.w3.org/2000/svg">
 <style id="current-color-scheme" type="text/css">.ColorScheme-Text {
        color:#dedede;
      }
      .ColorScheme-Highlight {
        color:#a0b6cb;
      }</style>
 <g transform="translate(1,1)">
  <path class="ColorScheme-Text" d="m9 3v1h9v10h-11v2h2v3h6v-1h-2v-2h6v-13h-10zm-6 7v6h1v-6h-1z" fill="currentColor"/>
  <path class="ColorScheme-Highlight" d="m3 3v6h2v7c0 1.662 1.338 3 3 3h1v-1h-1c-1.108 0-2-0.892-2-2v-7h2v-6zm1 1h3v4h-3zm1 1v2h1v-2z" fill="currentColor"/>
  <rect width="22" height="22" fill="none"/>
 </g>
</svg>
