<?xml version="1.0" encoding="UTF-8"?>
<svg width="24" height="24" viewBox="0 0 24 24" xmlns="http://www.w3.org/2000/svg">
 <style id="current-color-scheme" type="text/css">.ColorScheme-Text {
        color:#dedede;
      }
      .ColorScheme-Background {
        color:#eff0f1;
      }
      .ColorScheme-Highlight {
        color:#a0b6cb;
      }
      .ColorScheme-ButtonText {
        color:#dedede;
      }
      .ColorScheme-NegativeText{
        color:#ec9b97;
      }</style>
 <g transform="translate(1,1)">
  <g id="network-wired-activated-locked" transform="translate(-22)">
   <path id="path4571" class="ColorScheme-Text" d="m25 3v6h2v7c0 1.662 1.338 3 3 3h1 1 2v-5h-5v1 1h1 1v1 0.72656 0.27344h-1c-1.108 0-2-0.892-2-2v-7h2v-6h-5zm6 0v1h9v7h1v-8h-1-9zm-5 1h3v4h-3v-4zm1 1v2h1v-2h-1zm-2 5v6h1v-6h-1zm13 2c-1.108 0-2 0.892-2 2v2h-1v3h6v-3h-1v-2c0-1.108-0.892-2-2-2zm0 1c0.554 0 1 0.446 1 1v2h-2v-2c0-0.554 0.446-1 1-1z" fill="currentColor"/>
   <rect id="rect4574" x="22" width="22" height="22" fill="none"/>
  </g>
 </g>
</svg>
