<?xml version="1.0" encoding="UTF-8"?>
<svg width="24" height="24" viewBox="0 0 24 24" xmlns="http://www.w3.org/2000/svg">
 <defs id="defs3051">
  <style id="current-color-scheme" type="text/css">.ColorScheme-Text {
        color:#dedede;
      }</style>
 </defs>
 <g transform="translate(1,1)">
  <path class="ColorScheme-Text" transform="translate(0 -1030.4)" d="m3 1033.4v6h2v7c0 1.662 1.338 3 3 3h1 1 2 3v-1h-1-1v-2h1 4 1v-13h-1-9v1h9v10h-11v1 1h1 1v1 0.7266 0.2734h-1c-1.108 0-2-0.892-2-2v-7h2v-6zm1 1h3v4h-3zm1 1v2h1v-2zm-2 5v6h1v-6z" fill="currentColor"/>
 </g>
</svg>
