<?xml version="1.0" encoding="UTF-8"?>
<svg width="24" height="24" viewBox="0 0 24 24" xmlns="http://www.w3.org/2000/svg">
 <style id="current-color-scheme" type="text/css">.ColorScheme-Text {
        color:#dedede;
      }
      .ColorScheme-Background {
        color:#eff0f1;
      }
      .ColorScheme-Highlight {
        color:#a0b6cb;
      }
      .ColorScheme-ButtonText {
        color:#dedede;
      }
      .ColorScheme-NegativeText{
        color:#ec9b97;
      }</style>
 <g transform="translate(1,1)">
  <g id="network-unavailable" transform="translate(-182 -76)">
   <path id="path1595" class="ColorScheme-Text" d="m185 79v6h2v7c0 1.662 1.338 3 3 3h4v-5h-5v2h2v2h-1c-1.108 0-2-0.892-2-2v-7h2v-6zm6 0v1h9v7h1v-8h-1zm-5 1h3v4h-3zm1 1v2h1v-2zm-2 5v6h1v-6z" fill="currentColor" opacity=".35"/>
   <rect id="rect1597" x="182" y="76" width="22" height="22" fill="none"/>
   <path id="path1609" class="ColorScheme-NegativeText" d="m195.85 89.003-0.84845 0.84844 2.1516 2.1516-2.1516 2.1516 0.84845 0.84844 2.1516-2.1516 2.1515 2.1516 0.84845-0.84844-2.1516-2.1516 2.1516-2.1516-0.84845-0.84844-2.1515 2.1516z" fill="currentColor"/>
  </g>
 </g>
</svg>
