<?xml version="1.0" encoding="UTF-8" standalone="no"?>
<svg
   width="22"
   height="22"
   version="1.1"
   id="svg7"
   sodipodi:docname="folder-desk2.svg"
   inkscape:version="1.2.2 (b0a8486541, 2022-12-01)"
   xmlns:inkscape="http://www.inkscape.org/namespaces/inkscape"
   xmlns:sodipodi="http://sodipodi.sourceforge.net/DTD/sodipodi-0.dtd"
   xmlns="http://www.w3.org/2000/svg"
   xmlns:svg="http://www.w3.org/2000/svg">
  <sodipodi:namedview
     id="namedview9"
     pagecolor="#ffffff"
     bordercolor="#000000"
     borderopacity="0.25"
     inkscape:showpageshadow="2"
     inkscape:pageopacity="0.0"
     inkscape:pagecheckerboard="0"
     inkscape:deskcolor="#d1d1d1"
     showgrid="false"
     inkscape:zoom="39.181818"
     inkscape:cx="9.3410673"
     inkscape:cy="11"
     inkscape:window-width="1920"
     inkscape:window-height="1021"
     inkscape:window-x="0"
     inkscape:window-y="0"
     inkscape:window-maximized="1"
     inkscape:current-layer="svg7" />
  <defs
     id="defs3">
    <style
       id="current-color-scheme"
       type="text/css">.ColorScheme-Text { color:#dedede; }</style>
  </defs>
  <path
     class="ColorScheme-Text"
     d="m5 5c-1.108 0-2 0.892-2 2v9c0 1.108 0.892 2 2 2h12c1.108 0 2-0.892 2-2v-8c0-1.108-0.892-2-2-2h-7.6289c-0.57985-0.0229-0.60474 0.076886-1.0391-0.35742-0.43381-0.43381-0.61297-0.64213-1.332-0.64258zm0 1h2c0.31116-1.7e-6 0.52033 1.383e-4 0.99805 0.4707 0.47877 0.47161 0.6388 0.5293 1 0.5293h8.002c0.554 0 1 0.446 1 1v1h-14v-2c0-0.554 0.446-1 1-1zm-1 4h14v6c0 0.554-0.446 1-1 1h-12c-0.554 0-1-0.446-1-1z"
     fill="currentColor"
     id="path5"
     style="fill:#dedede;fill-opacity:1" />
  <path
     class="ColorScheme-Text"
     d="m 7,13.717706 c -0.554,0 -1,0.360803 -1,0.808976 0,0.448173 0.446,0.808976 1,0.808976 h 8 c 0.554,0 1,-0.360803 1,-0.808976 0,-0.448173 -0.446,-0.808976 -1,-0.808976 z"
     fill="currentColor"
     id="path5-3"
     sodipodi:nodetypes="sssssss"
     style="color:#dedede;stroke-width:0.999996" />
</svg>
