<?xml version="1.0" encoding="UTF-8"?>
<svg viewBox="0 0 16 16" xmlns="http://www.w3.org/2000/svg">
 <style id="current-color-scheme" type="text/css">.ColorScheme-Text {
            color:#dedede;
        }
        .ColorScheme-NegativeText {
            color:#d19494;
        }</style>
 <path class="ColorScheme-Text" d="m4.1211 2 2.8789 2.8789v-0.87891h2v2h-0.87891l1 1h1.1719l1 1h0.70703v1h-0.70703l-0.085938 0.085938 0.70703 0.70703 0.085938-0.085938v0.17188l1 1v-6.5859l-2.293-2.293zm5.8789 2h1c0.554 0 1 0.446 1 1v2.293l-1.293-1.293h-0.70703zm-7 1.1211v8.8789h8.8789l-1-1h-0.87891v-0.87891l-1-1v1.8789h-2v-2h1.8789l-1-1h-2.1719l-1-1h-0.70703v-1h0.70703l0.58594-0.58594-0.70703-0.70703-0.58594 0.58594v-1.1719zm1 4.5859 1.293 1.293h0.70703v2h-1c-0.554 0-1-0.446-1-1z" fill="currentColor"/>
 <path class="ColorScheme-NegativeText" d="m2.5 1.793-0.70703 0.70703 11.707 11.707 0.70703-0.70703z" fill="currentColor" stroke-linecap="square" stroke-miterlimit="0"/>
</svg>
