<?xml version="1.0" encoding="UTF-8"?>
<svg width="16" height="16" xmlns="http://www.w3.org/2000/svg">
 <style id="current-color-scheme" type="text/css">.ColorScheme-Text {
            color:#dedede;
        }
        .ColorScheme-NeutralText {
            color:#f5cba3;
        }
        .ColorScheme-NegativeText {
            color:#d19494;
        }</style>
 <g id="disk-quota" class="ColorScheme-Text" transform="translate(-3,-3)" fill="currentColor">
  <path d="m16 12a3 1 0 0 0-3 1v5a3 1 0 0 0 3 1 3 1 0 0 0 3-1v-5a3 1 0 0 0-3-1zm-0.1 1a3 1 0 0 1 0.1 0 3 1 0 0 1 2 0.25781v0.48219a3 1 0 0 1-2 0.26 3 1 0 0 1-2-0.3v-0.5a3 1 0 0 1 1.9-0.2zm-1.9 1.74a3 1 0 0 0 2 0.26 3 1 0 0 0 2-0.26v1a3 1 0 0 1-2 0.26 3 1 0 0 1-2-0.3v-0.96zm0 2a3 1 0 0 0 2 0.26 3 1 0 0 0 2-0.26v1a3 1 0 0 1-2 0.26 3 1 0 0 1-2-0.3v-0.96z"/>
  <path d="m4 3v16h8v-3h-5l-2-2v-2.1c0.6-0.2 1-0.8 1-1.4s-0.4-1.2-1-1.4v-2.1c0-1.7 1.3-3 3-3h4c1.66 0 3 1.34 3 3v2.1c-0.6 0.2-1 0.8-1 1.4 6.76e-4 0.2 0 0.3 0.1 0.5h1.9v-8zm2 14h5v1h-5z"/>
 </g>
</svg>
