<?xml version="1.0" encoding="UTF-8"?>
<svg width="16" height="16" version="1.1" xmlns="http://www.w3.org/2000/svg">
 <defs>
  <style id="current-color-scheme" type="text/css">.ColorScheme-Text { color:#dedede; } .ColorScheme-Highlight { color:#a0b6cb; } .ColorScheme-NeutralText { color:#f5cba3; } .ColorScheme-PositiveText { color:#aac69f; } .ColorScheme-NegativeText { color:#ec9b97; }</style>
 </defs>
 <path class="ColorScheme-Text" d="m3 0c-1.108 0-2 0.892-2 2v12c0 1.108 0.892 2 2 2h1v-16h-1zm2 0v16h8c1.108 0 2-0.892 2-2v-12c0-1.108-0.892-2-2-2h-8zm2 3h6v1h-6v-1zm0 3h6v1h-6v-1zm0 3h6v1h-6v-1zm0 3h6v1h-6v-1z" fill="currentColor"/>
</svg>
