<?xml version="1.0" encoding="UTF-8"?>
<svg viewBox="0 0 16 16" xmlns="http://www.w3.org/2000/svg">
 <defs id="defs3051">
  <style id="current-color-scheme" type="text/css">.ColorScheme-Text {
        color:#dedede;
      }</style>
 </defs>
 <path class="ColorScheme-Text" d="m4 2v12h2v-2h-1v-7h6v1h1v-4h-8zm3 1h2v1h-2v-1zm2.5 3-0.27734 1.1074c-0.25212 0.067196-0.4944 0.167-0.7207 0.29688l-0.97656-0.58594-0.70703 0.70703 0.58594 0.97656c-0.13139 0.22672-0.23251 0.46967-0.30078 0.72266l-1.1035 0.27539v1l1.1074 0.27734c0.067196 0.25212 0.167 0.4944 0.29688 0.7207l-0.58594 0.97656 0.70703 0.70703 0.97656-0.58594c0.22672 0.13139 0.46967 0.23251 0.72266 0.30078l0.27539 1.1035h1l0.27734-1.1074c0.25212-0.0672 0.4944-0.167 0.7207-0.29688l0.97656 0.58594 0.70703-0.70703-0.58594-0.97656c0.13139-0.22672 0.23251-0.46967 0.30078-0.72266l1.1035-0.27539v-1l-1.1074-0.27734c-0.067196-0.25212-0.167-0.4944-0.29688-0.7207l0.58594-0.97656-0.70703-0.70703-0.97656 0.58594c-0.22672-0.13139-0.46967-0.23251-0.72266-0.30078l-0.27539-1.1035h-1zm0.5 2a2 2 0 0 1 2 2 2 2 0 0 1-2 2 2 2 0 0 1-2-2 2 2 0 0 1 2-2z" fill="currentColor"/>
</svg>
