<?xml version="1.0" encoding="UTF-8" standalone="no"?>
<svg
   width="32"
   height="32"
   version="1.1"
   id="svg2589"
   sodipodi:docname="start-here.svg"
   inkscape:version="1.2.2 (b0a8486541, 2022-12-01)"
   xmlns:inkscape="http://www.inkscape.org/namespaces/inkscape"
   xmlns:sodipodi="http://sodipodi.sourceforge.net/DTD/sodipodi-0.dtd"
   xmlns="http://www.w3.org/2000/svg"
   xmlns:svg="http://www.w3.org/2000/svg">
  <defs
     id="defs2593" />
  <sodipodi:namedview
     id="namedview2591"
     pagecolor="#ffffff"
     bordercolor="#000000"
     borderopacity="0.25"
     inkscape:showpageshadow="2"
     inkscape:pageopacity="0.0"
     inkscape:pagecheckerboard="0"
     inkscape:deskcolor="#d1d1d1"
     showgrid="false"
     inkscape:zoom="14.591694"
     inkscape:cx="0.41119284"
     inkscape:cy="18.092485"
     inkscape:window-width="1920"
     inkscape:window-height="1021"
     inkscape:window-x="0"
     inkscape:window-y="0"
     inkscape:window-maximized="1"
     inkscape:current-layer="svg2589" />
  <style
     id="current-color-scheme"
     type="text/css">.ColorScheme-Text {
            color:#dedede;
        }
        .ColorScheme-ButtonFocus {
            color:#3daee9;
        }
        .ColorScheme-NegativeText {
            color:#da4453;
        }</style>
  <path
     id="path20"
     style="color:#ffff00;fill:#dedede;fill-opacity:1"
     d="m 10,4.0000002 a 1.5,1.5 0 0 0 -1.5,1.5 1.5,1.5 0 0 0 1.5,1.5 1.5,1.5 0 0 0 1.5,-1.5 1.5,1.5 0 0 0 -1.5,-1.5 z m 10.5,0 -3,3 L 22,11.5 17.5,16 l 3,3 7.5,-7.5 z M 6.5,13 A 2.5,2.5 0 0 0 4,15.5 2.5,2.5 0 0 0 6.5,18 2.5,2.5 0 0 0 9,15.5 2.5,2.5 0 0 0 6.5,13 Z m 6.5,9 a 3,3 0 0 0 -3,3 3,3 0 0 0 3,3 3,3 0 0 0 3,-3 3,3 0 0 0 -3,-3 z"
     class="ColorScheme-Text" />
</svg>
