<?xml version="1.0" encoding="UTF-8"?>
<svg width="16" height="16" xmlns="http://www.w3.org/2000/svg">
 <style id="current-color-scheme" type="text/css">.ColorScheme-Highlight {
            color:#9fbac6;
        }
        .ColorScheme-Text {
            color:#5e5e5e;
        }</style>
 <rect class="ColorScheme-Highlight" width="16" height="16" rx="2" fill="currentColor"/>
 <path class="ColorScheme-Text" d="m2 0c-1.108 0-2 .892-2 2v12c0 1.108.892 2 2 2h12c1.108 0 2-.892 2-2v-12c0-1.108-.892-2-2-2zm0 1h12c.554 0 1 .446 1 1v12c0 .554-.446 1-1 1h-12c-.554 0-1-.446-1-1v-12c0-.554.446-1 1-1z" fill="currentColor" fill-opacity=".6"/>
 <g fill="#fff">
  <path d="m7 2v4h-4v2h4v4h2v-4h4v-2h-4v-4z"/>
  <path d="m15 14a1 1 0 0 1-1 1 1 1 0 0 1-1-1 1 1 0 0 1 1-1 1 1 0 0 1 1 1z"/>
  <path d="m9 14a1 1 0 0 1-1 1 1 1 0 0 1-1-1 1 1 0 0 1 1-1 1 1 0 0 1 1 1z"/>
  <path d="m12 14a1 1 0 0 1-1 1 1 1 0 0 1-1-1 1 1 0 0 1 1-1 1 1 0 0 1 1 1z"/>
 </g>
</svg>
