<?xml version="1.0" encoding="UTF-8" standalone="no"?>
<svg
   version="1.1"
   viewBox="0 0 32 32"
   id="svg1070"
   sodipodi:docname="system-log-out-rtl.svg"
   inkscape:version="1.2.2 (b0a8486541, 2022-12-01)"
   xmlns:inkscape="http://www.inkscape.org/namespaces/inkscape"
   xmlns:sodipodi="http://sodipodi.sourceforge.net/DTD/sodipodi-0.dtd"
   xmlns="http://www.w3.org/2000/svg"
   xmlns:svg="http://www.w3.org/2000/svg">
  <sodipodi:namedview
     id="namedview1072"
     pagecolor="#ffffff"
     bordercolor="#000000"
     borderopacity="0.25"
     inkscape:showpageshadow="2"
     inkscape:pageopacity="0.0"
     inkscape:pagecheckerboard="0"
     inkscape:deskcolor="#d1d1d1"
     showgrid="false"
     inkscape:zoom="26.9375"
     inkscape:cx="11.174014"
     inkscape:cy="16"
     inkscape:window-width="1920"
     inkscape:window-height="1021"
     inkscape:window-x="0"
     inkscape:window-y="0"
     inkscape:window-maximized="1"
     inkscape:current-layer="svg1070" />
  <defs
     id="defs1064">
    <style
       id="current-color-scheme"
       type="text/css">.ColorScheme-Text {
        color:#dedede;
      }</style>
  </defs>
  <path
     id="path163"
     d="m 27.386776,8.3882981 c -0.201657,-0.2983309 -0.121657,-0.703331 0.176666,-0.904987 0.298343,-0.201675 0.704999,-0.123337 0.906656,0.175001 1.649937,2.4716259 2.529903,5.3748759 2.529903,8.3416879 0,3.978187 -1.578337,7.79325 -4.394936,10.605 C 23.793488,29.421625 19.978514,31 16,31 12.02167,31 8.2066949,29.42172 5.3949339,26.605 2.5783735,23.793437 0.99999905,19.978375 0.99999905,16 0.99999905,12.021812 2.5783364,8.2067501 5.3949339,5.3949999 8.2065109,2.585125 12.021486,0.99999985 16,0.99999985 c 2.229954,0 4.441635,0.49499995 6.456733,1.46167505 0.323336,0.1533298 0.461663,0.5433186 0.306667,0.8666624 -0.155013,0.323325 -0.54334,0.4616625 -0.868335,0.3066563 -1.838269,-0.8733187 -3.853368,-1.3299938 -5.895046,-1.3299938 -3.633345,0 -7.114961,1.4400187 -9.684918,4.0100625 C 3.745145,8.8851252 2.3050227,12.366625 2.3050227,16 c 0,3.633374 1.4400293,7.115061 4.0100783,9.684939 2.569957,2.57006 6.051573,4.01006 9.684918,4.01006 3.633343,0 7.114958,-1.440019 9.684916,-4.01006 2.569957,-2.570063 4.010079,-6.051565 4.010079,-9.684939 0,-2.713312 -0.801666,-5.361562 -2.308219,-7.6117498 z m -14.92506,1.093332 c 0.05498,0.075 0.108328,0.143336 0.176665,0.204994 l 0.0067,0.0066 3.166714,3.1649989 c 0.26499,0.266664 0.26499,0.698344 0,0.965007 l -4.25668,4.256626 c -0.26833,0.266663 -0.699997,0.266663 -0.965005,0 -0.264987,-0.268332 -0.263342,-0.701663 0.0033,-0.968327 L 14.363347,13.341467 11.683379,10.66153 C 11.506713,10.491527 11.356703,10.293205 11.226719,10.081518 11.09839,9.8631932 11.030062,9.6115112 11.023382,9.3581992 c 0,-0.421669 0.238332,-0.81 0.60667,-1.014994 0.326643,-0.170002 0.694961,-0.25166 1.069963,-0.231673 h 0.075 l 8.304966,0.251665 h 0.0067 c 0.538233,0.02 1.049899,0.238332 1.4316,0.620006 0.388326,0.375001 0.626662,0.879994 0.661657,1.4183618 v 0.0066 l 0.511666,8.659876 0.0066,0.170007 c 0.02,0.348339 -0.055,0.703332 -0.225007,1.016663 -0.198334,0.353324 -0.573334,0.578324 -0.981653,0.586667 -0.253321,-0.0086 -0.505001,-0.08333 -0.716664,-0.211668 -0.211661,-0.123315 -0.408336,-0.279993 -0.579999,-0.456656 l -2.318368,-2.318437 -5.423252,5.418186 c -0.531673,0.531677 -1.396706,0.531677 -1.928344,-0.0017 L 9.1415739,20.887776 c -0.264989,-0.266664 -0.263327,-0.700013 0.0033,-0.964987 0.265008,-0.264994 0.696656,-0.266664 0.9633431,-0.0031 l 1.898258,1.903313 c 0.266667,0.266663 0.698315,0.26833 0.965001,0.0017 l 5.423487,-5.418581 c 0.266669,-0.264995 0.698318,-0.264995 0.965003,0 l 2.803272,2.805 c 0.0066,0.0069 0.0066,0.0069 0.01329,0.01328 0.04834,0.04833 0.103328,0.09502 0.156674,0.143348 v -0.08169 l -0.0067,-0.156647 -0.503342,-8.638339 c -0.01494,-0.204945 -0.109986,-0.389932 -0.253336,-0.5332758 -0.143348,-0.141671 -0.33334,-0.225 -0.538338,-0.231674 l -8.283322,-0.251487 h -0.08167 c -0.015,0 -0.02166,0 -0.035,-0.0066 -0.05499,0 -0.108329,0 -0.169983,0.01333 z"
     style="clip-rule:evenodd;isolation:isolate;fill:#bdb3c1;fill-rule:evenodd;stroke-width:1.20998;stroke-linejoin:round;stroke-miterlimit:1.4142" />
</svg>
