<?xml version="1.0" encoding="UTF-8" standalone="no"?>
<svg
   version="1.1"
   viewBox="0 0 32 32"
   id="svg11"
   sodipodi:docname="system-shutdown.svg"
   inkscape:version="1.2.2 (b0a8486541, 2022-12-01)"
   xmlns:inkscape="http://www.inkscape.org/namespaces/inkscape"
   xmlns:sodipodi="http://sodipodi.sourceforge.net/DTD/sodipodi-0.dtd"
   xmlns="http://www.w3.org/2000/svg"
   xmlns:svg="http://www.w3.org/2000/svg">
  <sodipodi:namedview
     id="namedview13"
     pagecolor="#ffffff"
     bordercolor="#000000"
     borderopacity="0.25"
     inkscape:showpageshadow="2"
     inkscape:pageopacity="0.0"
     inkscape:pagecheckerboard="0"
     inkscape:deskcolor="#d1d1d1"
     showgrid="false"
     inkscape:zoom="26.9375"
     inkscape:cx="11.174014"
     inkscape:cy="16"
     inkscape:window-width="1920"
     inkscape:window-height="1021"
     inkscape:window-x="0"
     inkscape:window-y="0"
     inkscape:window-maximized="1"
     inkscape:current-layer="svg11" />
  <defs
     id="defs3">
    <style
       id="current-color-scheme"
       type="text/css">.ColorScheme-Text {
        color:#dedede;
      }</style>
  </defs>
  <path
     id="path141"
     d="M 27.386557,8.3884885 C 27.18488,8.0901572 27.264901,7.6851574 27.563219,7.4835011 c 0.29833,-0.2016562 0.705,-0.1233358 0.906655,0.1749993 C 30.119836,10.130125 31,13.033375 31,16.000001 31,19.978375 29.421663,23.793251 26.604999,26.605 23.793437,29.421625 19.978374,31 15.999999,31 12.021624,31 8.2067495,29.421605 5.3949995,26.605 c -2.816625,-2.811562 -4.395,-6.626625 -4.395,-10.604999 0,-3.978375 1.578337,-7.7932505 4.395,-10.6050006 2.811563,-2.8100626 6.6266245,-4.3950002 10.6049995,-4.3950002 2.229938,0 4.441688,0.4950001 6.456562,1.4615815 0.323344,0.1533261 0.461663,0.5433187 0.306677,0.8666623 -0.155006,0.3233252 -0.543319,0.4616627 -0.868333,0.306675 -1.83838,-0.8733187 -3.853311,-1.3299938 -5.894999,-1.3299938 -3.633374,0 -7.1150625,1.439944 -9.6849375,4.0098752 -2.570062,2.5700626 -4.009875,6.0515626 -4.009875,9.6849376 0,3.633187 1.440037,7.114874 4.009875,9.684937 2.570063,2.569876 6.0517495,4.009875 9.6849365,4.009875 3.633376,0 7.115063,-1.439943 9.684939,-4.009875 2.569875,-2.570063 4.009875,-6.051561 4.009875,-9.684937 0,-2.713312 -0.801657,-5.361562 -2.308312,-7.61175 z M 16.134868,6.485176 c 0.376651,0 0.681657,0.3049876 0.681657,0.6816563 v 9.4681867 c 0,0.375 -0.305006,0.681656 -0.681657,0.681656 -0.376669,0 -0.681656,-0.306674 -0.681656,-0.681656 V 7.1668323 c 0,-0.3766687 0.305006,-0.6816563 0.681656,-0.6816563 z m 2.93325,4.479938 c -0.335006,-0.169997 -0.469987,-0.578325 -0.3,-0.913332 0.169987,-0.3350058 0.578326,-0.4700058 0.913332,-0.2999995 1.35,0.6816565 2.488313,1.7249815 3.279937,3.0133135 0.79667,1.288312 1.220007,2.768249 1.220007,4.281562 0,0.374998 -0.02666,0.743324 -0.075,1.11165 -0.265013,1.956561 -1.233338,3.756563 -2.720063,5.058374 -1.493306,1.303332 -3.403311,2.01825 -5.379937,2.025 -0.368326,0 -0.743346,-0.02666 -1.104995,-0.075 -1.963314,-0.264995 -3.763314,-1.23332 -5.0651265,-2.719877 -1.30333,-1.493361 -2.01825,-3.401624 -2.01825,-5.379937 0,-0.37498 0.02,-0.743325 0.075,-1.111649 0.381674,-2.84325 2.2366865,-5.276625 4.8682485,-6.4149381 0.346668,-0.1466645 0.748331,0.013357 0.896664,0.3583313 0.148327,0.3433308 -0.0084,0.7449938 -0.351676,0.8966628 -2.195063,0.946669 -3.7432495,2.97825 -4.0633125,5.345063 -0.04166,0.306674 -0.06166,0.61333 -0.06166,0.926661 0,1.643326 0.6,3.238313 1.6850235,4.479938 1.083319,1.239994 2.583375,2.045062 4.213314,2.263313 0.306674,0.04164 0.620007,0.06833 0.926662,0.06833 1.649962,-0.0067 3.238312,-0.599999 4.480125,-1.691661 1.239994,-1.083319 2.045061,-2.583376 2.270061,-4.213314 0.04166,-0.306674 0.06167,-0.613311 0.06167,-0.926661 0,-2.563312 -1.460024,-4.923375 -3.75,-6.081563 z"
     style="clip-rule:evenodd;isolation:isolate;fill:#d19494;fill-rule:evenodd;stroke-width:1.20128;stroke-linejoin:round;stroke-miterlimit:1.4142" />
</svg>
