<?xml version="1.0" encoding="UTF-8" standalone="no"?>
<svg
   version="1.1"
   viewBox="0 0 32 32"
   id="svg520"
   sodipodi:docname="system-reboot.svg"
   inkscape:version="1.2.2 (b0a8486541, 2022-12-01)"
   xmlns:inkscape="http://www.inkscape.org/namespaces/inkscape"
   xmlns:sodipodi="http://sodipodi.sourceforge.net/DTD/sodipodi-0.dtd"
   xmlns="http://www.w3.org/2000/svg"
   xmlns:svg="http://www.w3.org/2000/svg">
  <sodipodi:namedview
     id="namedview522"
     pagecolor="#ffffff"
     bordercolor="#000000"
     borderopacity="0.25"
     inkscape:showpageshadow="2"
     inkscape:pageopacity="0.0"
     inkscape:pagecheckerboard="0"
     inkscape:deskcolor="#d1d1d1"
     showgrid="false"
     inkscape:zoom="26.9375"
     inkscape:cx="11.174014"
     inkscape:cy="16"
     inkscape:window-width="1920"
     inkscape:window-height="1021"
     inkscape:window-x="0"
     inkscape:window-y="0"
     inkscape:window-maximized="1"
     inkscape:current-layer="svg520" />
  <defs
     id="defs514">
    <style
       id="current-color-scheme"
       type="text/css">.ColorScheme-Text {
                color:#dedede;
            }</style>
  </defs>
  <g
     id="g495"
     transform="matrix(1.8749999,0,0,1.8750522,0.9970008,1.6010563)"
     style="clip-rule:evenodd;fill-rule:evenodd;stroke-width:0.53332;stroke-linejoin:round;stroke-miterlimit:1.4142">
    <path
       id="path32"
       d="m 4.1756,7.9014 c 0,-2.053 1.714,-3.719 3.826,-3.719 2.112,0 3.826,1.666 3.826,3.719 0,2.053 -1.714,3.72 -3.826,3.72 -2.112,0 -3.826,-1.667 -3.826,-3.72 z"
       stroke-miterlimit="3"
       style="isolation:isolate;fill:none;stroke:#deb68c;stroke-width:0.454813;stroke-linecap:square;stroke-linejoin:miter;stroke-miterlimit:3" />
    <path
       id="path39"
       d="m 4.5496,1.642 c 1.06,-0.553 2.246,-0.84202 3.452,-0.84202 1.283,0 2.546,0.328 3.659,0.954 0.165,0.093 0.377,0.038002 0.473,-0.124 0.096,-0.161 0.03998,-0.368 -0.125,-0.461 -1.217,-0.687 -2.602,-1.045 -4.007,-1.045 -1.376,0 -2.728,0.345 -3.927,1.001 l 0.172,-0.98602 c 0.036975,-0.214 -0.112,-0.418 -0.333,-0.454 -0.221,-0.036 -0.43,0.108 -0.46699,0.323 l -0.242,1.403 c -0.075,0.435 0.218,0.846 0.653,0.91702 l 1.466,0.241 c 0.221,0.036 0.43,-0.109 0.468,-0.324 0.036975,-0.214 -0.112,-0.418 -0.333,-0.454 z m -2.858,9.837 c 0.096,0.161 0.039975,0.368 -0.125,0.462 -0.165,0.094 -0.378,0.04 -0.476,-0.12 -0.71299,-1.191 -1.089,-2.543 -1.089,-3.92 0,-1.237 0.303,-2.455 0.88297,-3.557 0.088995,-0.166 0.29899,-0.231 0.46999,-0.145 0.171,0.084998 0.238,0.29 0.15,0.456 -0.53299,1.004 -0.807,2.117 -0.807,3.246 0,1.258 0.341,2.493 0.99397,3.578 z m 9.99,2.557 c 0.165,-0.094 0.378,-0.039 0.475,0.121 0.09701,0.161 0.04103,0.369 -0.124,0.464 -1.224,0.693 -2.615,1.058 -4.031,1.058 -1.367,0 -2.717,-0.341 -3.91,-0.99098 -0.167,-0.091 -0.226,-0.297 -0.132,-0.46 0.093997,-0.162 0.306,-0.221 0.47299,-0.131 1.089,0.595 2.32,0.906 3.569,0.906 1.294,0 2.563,-0.332 3.68,-0.96698 z m 2.904,-9.2077 c -0.082,-0.168 -0.009,-0.37 0.164,-0.45 0.173,-0.080002 0.381,-0.009 0.466,0.159 0.518,1.048 0.786,2.198 0.786,3.364 0,1.326 -0.348,2.628 -1.012,3.788 -0.094,0.162 -0.306,0.221 -0.473,0.13 -0.167,-0.09 -0.228,-0.297 -0.136,-0.462 0.609,-1.055 0.92498,-2.245 0.92498,-3.456 0,-1.065 -0.243,-2.113 -0.72,-3.073 z m -1.193,-1.83 c 0,-0.187 0.156,-0.338 0.348,-0.338 0.192,0 0.348,0.151 0.348,0.338 0,0.187 -0.156,0.338 -0.348,0.338 -0.192,0 -0.348,-0.151 -0.348,-0.338 z m -0.348,10.145 c 0,-0.187 0.156,-0.338 0.348,-0.338 0.192,0 0.348,0.151 0.348,0.338 0,0.187 -0.156,0.338 -0.348,0.338 -0.192,0 -0.348,-0.151 -0.348,-0.338 z m -11.13,0 c 0,-0.187 0.156,-0.338 0.348,-0.338 0.192,0 0.348,0.151 0.348,0.338 0,0.187 -0.156,0.338 -0.348,0.338 -0.192,0 -0.348,-0.151 -0.348,-0.338 z"
       style="isolation:isolate;fill:#deb68c;fill-rule:evenodd;stroke-width:0.711074" />
  </g>
</svg>
