<?xml version="1.0" encoding="UTF-8" standalone="no"?>
<svg
   version="1.1"
   viewBox="0 0 32 32"
   id="svg588"
   sodipodi:docname="system-switch-user.svg"
   inkscape:version="1.2.2 (b0a8486541, 2022-12-01)"
   xmlns:inkscape="http://www.inkscape.org/namespaces/inkscape"
   xmlns:sodipodi="http://sodipodi.sourceforge.net/DTD/sodipodi-0.dtd"
   xmlns="http://www.w3.org/2000/svg"
   xmlns:svg="http://www.w3.org/2000/svg">
  <sodipodi:namedview
     id="namedview590"
     pagecolor="#ffffff"
     bordercolor="#000000"
     borderopacity="0.25"
     inkscape:showpageshadow="2"
     inkscape:pageopacity="0.0"
     inkscape:pagecheckerboard="0"
     inkscape:deskcolor="#d1d1d1"
     showgrid="false"
     inkscape:zoom="26.9375"
     inkscape:cx="13.587007"
     inkscape:cy="16"
     inkscape:window-width="1920"
     inkscape:window-height="1021"
     inkscape:window-x="0"
     inkscape:window-y="0"
     inkscape:window-maximized="1"
     inkscape:current-layer="svg588" />
  <defs
     id="defs580">
    <style
       id="current-color-scheme"
       type="text/css">.ColorScheme-Text {
        color:#dedede;
      }</style>
  </defs>
  <g
     id="g4417"
     transform="matrix(1.4285534,0,0,1.4285534,12.100641,1.198302)"
     style="clip-rule:evenodd;fill-rule:evenodd;stroke-width:0.7;stroke-linejoin:round;stroke-miterlimit:1.4142">
    <g
       id="g344"
       transform="matrix(1.187515,0,0,1.187515,-0.49113309,-1.9407898)"
       style="stroke-width:0.589466">
      <path
         id="path141-7-8"
         d="M 9.424357,5.8727906 C 9.305299,5.6969322 9.352517,5.4581954 9.528363,5.3393243 c 0.175869,-0.1188821 0.415645,-0.072726 0.53445,0.1031211 0.97262,1.4569578 1.491442,3.1683472 1.491442,4.9170946 0,2.345147 -0.930389,4.593915 -2.590737,6.251368 -1.657342,1.660326 -3.9062208,2.590737 -6.2513681,2.590737 -2.34503675,0 -4.5939155,-0.930422 -6.2513681,-2.590737 -1.6603262,-1.657342 -2.5907367,-3.906221 -2.5907367,-6.251368 0,-2.3451474 0.9303884,-4.5939157 2.5907367,-6.2513682 1.657342,-1.6564579 3.90622085,-2.5907368 6.2513681,-2.5907368 1.3145999,0 2.6182578,0.2917895 3.8059735,0.8615637 0.1904921,0.09041 0.27195,0.3202831 0.1808874,0.5108747 C 6.607495,3.0804429 6.378606,3.1620334 6.1871524,3.0706281 5.103464,2.5558297 3.9157262,2.2866318 2.7122052,2.2866318 c -2.14177895,0 -4.1940314,0.8488089 -5.7090155,2.3637157 -1.5149841,1.5149841 -2.3637157,3.5672367 -2.3637157,5.7090155 0,2.141668 0.8488421,4.194031 2.3637157,5.709015 1.5149841,1.514874 3.56734715,2.363716 5.7090155,2.363716 2.1417788,0 4.1941419,-0.848842 5.7090155,-2.363716 1.5148733,-1.514873 2.3637153,-3.567236 2.3637153,-5.709015 0,-1.5994262 -0.472588,-3.1604998 -1.360689,-4.4869261 z"
         style="clip-rule:evenodd;isolation:isolate;fill:#9fbac6;fill-rule:evenodd;stroke-width:0.708127;stroke-linejoin:round;stroke-miterlimit:1.4142" />
      <path
         id="path3394"
         d="M 0.28662841,5.1621228 A 1.7325227,1.7325227 0 0 0 -1.4458942,6.8946455 1.7325227,1.7325227 0 0 0 0.28662841,8.6271683 1.7325227,1.7325227 0 0 0 2.0191513,6.8946455 1.7325227,1.7325227 0 0 0 0.28662841,5.1621228 Z m 0,0.6929987 A 1.0394929,1.0394929 0 0 1 1.3261215,6.8946144 1.0394929,1.0394929 0 0 1 0.28662841,7.9341072 1.0394929,1.0394929 0 0 1 -0.75286444,6.8946144 1.0394929,1.0394929 0 0 1 0.28662841,5.8551215 Z M 5.1376299,7.2410774 A 1.7325227,1.7325227 0 0 0 3.4051072,8.9736001 1.7325227,1.7325227 0 0 0 5.1376299,10.706122 1.7325227,1.7325227 0 0 0 6.8701527,8.9736001 1.7325227,1.7325227 0 0 0 5.1376299,7.2410774 Z m 0,0.6929988 A 1.0394929,1.0394929 0 0 1 6.1771228,8.9735689 1.0394929,1.0394929 0 0 1 5.1376299,10.013062 1.0394929,1.0394929 0 0 1 4.0981371,8.9735689 1.0394929,1.0394929 0 0 1 5.1376299,7.9340762 Z m -5.89049434,1.3859557 c -1.15175796,0 -2.07898556,0.9272271 -2.07898556,2.0789851 v 1.385956 c 0,0.383916 0.3090723,0.692999 0.6929987,0.692999 h 3.4649414 c 0,-0.239489 0.030041,-0.471629 0.086625,-0.692999 h -3.5516359 v -1.385956 c 0,-0.767843 0.6181552,-1.385955 1.38595582,-1.385955 H 1.3260206 c 0.6635707,0 1.2145434,0.461824 1.3521723,1.082839 C 2.8778171,10.977097 3.0941874,10.881714 3.3224601,10.815727 3.071537,9.9496215 2.2751711,9.3201047 1.3260101,9.3201047 H -0.75297567 Z M 4.0981371,11.399017 c -1.1517582,0 -2.0789858,0.927229 -2.0789858,2.078985 v 1.385957 c 0,0.383915 0.3090724,0.692998 0.6929987,0.692998 h 4.8510013 c 0.383916,0 0.6929988,-0.309072 0.6929988,-0.692998 v -1.385957 c 0,-1.151756 -0.9272277,-2.078985 -2.0789858,-2.078985 z m 0,0.692999 h 2.0789857 c 0.767842,0 1.3859559,0.618156 1.3859559,1.385956 v 1.385956 H 2.7120772 v -1.385956 c 0,-0.767843 0.6181551,-1.385956 1.3859559,-1.385956 z"
         style="fill:#9fbac6;fill-opacity:0.86667;stroke-width:0.589466" />
    </g>
  </g>
</svg>
