<?xml version="1.0" encoding="UTF-8" standalone="no"?>
<svg
   version="1.1"
   viewBox="0 0 32 32"
   id="svg135"
   sodipodi:docname="system-shutdown-update.svg"
   inkscape:version="1.2.2 (b0a8486541, 2022-12-01)"
   xmlns:inkscape="http://www.inkscape.org/namespaces/inkscape"
   xmlns:sodipodi="http://sodipodi.sourceforge.net/DTD/sodipodi-0.dtd"
   xmlns="http://www.w3.org/2000/svg"
   xmlns:svg="http://www.w3.org/2000/svg">
  <sodipodi:namedview
     id="namedview6"
     pagecolor="#ffffff"
     bordercolor="#000000"
     borderopacity="0.25"
     inkscape:showpageshadow="2"
     inkscape:pageopacity="0.0"
     inkscape:pagecheckerboard="0"
     inkscape:deskcolor="#d1d1d1"
     showgrid="false"
     inkscape:zoom="14.578541"
     inkscape:cx="15.982395"
     inkscape:cy="20.029439"
     inkscape:window-width="1920"
     inkscape:window-height="1021"
     inkscape:window-x="0"
     inkscape:window-y="0"
     inkscape:window-maximized="1"
     inkscape:current-layer="svg135" />
  <defs
     id="defs131">
    <style
       id="current-color-scheme"
       type="text/css">.ColorScheme-Text {
        color:#c2a3ae;
      }</style>
    <linearGradient
       id="linearGradient6473"
       x1="-0.45098999"
       x2="19.436001"
       y1="-0.50954002"
       y2="17.761999"
       gradientUnits="userSpaceOnUse"
       gradientTransform="matrix(0.26458,0,0,0.26458,0.265,0.264)">
      <stop
         id="stop6467"
         stop-color="#d19494"
         offset="0" />
      <stop
         id="stop6475"
         stop-color="#d19494"
         stop-opacity=".6155"
         offset=".65819" />
      <stop
         id="stop6469"
         stop-color="#d19494"
         stop-opacity="0"
         offset="1" />
    </linearGradient>
    <linearGradient
       id="linearGradient6473-3"
       x1="-0.45098999"
       x2="19.436001"
       y1="-0.50954002"
       y2="17.761999"
       gradientUnits="userSpaceOnUse"
       gradientTransform="matrix(1.4285578,0,0,1.4285578,1.7168004,1.7112762)">
      <stop
         id="stop6467-6"
         stop-color="#d19494"
         offset="0" />
      <stop
         id="stop6475-7"
         stop-color="#d19494"
         stop-opacity=".6155"
         offset="0.809582" />
      <stop
         id="stop6469-5"
         stop-color="#d19494"
         stop-opacity="0"
         offset="1" />
    </linearGradient>
  </defs>
  <rect
     id="rect823"
     x="0.99999332"
     y="0.99999768"
     width="29.999998"
     height="29.999998"
     ry="0.90767848"
     fill-opacity="0"
     stroke-miterlimit="1.4142"
     stroke-width="0.895699"
     rx="0.90767848"
     style="clip-rule:evenodd;fill-rule:evenodd;stroke-linejoin:round" />
  <path
     id="path141"
     d="m 27.386556,8.3884983 c -0.201684,-0.2983257 -0.12165,-0.7033362 0.176655,-0.9049914 0.298326,-0.2016553 0.705008,-0.1233355 0.906663,0.1749983 1.649985,2.4716908 2.530119,5.3749488 2.530119,8.3414918 0,3.978391 -1.578271,7.793211 -4.394959,10.605042 -2.811544,2.816687 -6.62665,4.394959 -10.605042,4.394959 -3.97839,0 -7.7932106,-1.578415 -10.6050409,-4.394959 -2.8166875,-2.811544 -4.39495821,-6.626651 -4.39495821,-10.605042 0,-3.978391 1.57841361,-7.7932113 4.39495821,-10.6050416 2.8115446,-2.8101161 6.6266509,-4.39495811 10.6050409,-4.39495811 2.22998,0 4.441674,0.49499521 6.456653,1.46155751 0.32334,0.1533271 0.461668,0.5433233 0.306684,0.8666631 -0.155013,0.3233254 -0.543324,0.461667 -0.868335,0.3066828 -1.838411,-0.8733202 -3.853392,-1.3300016 -5.895088,-1.3300016 -3.633393,0 -7.1150739,1.4399862 -9.6849065,4.0098189 -2.5701184,2.5701184 -4.009819,6.051514 -4.009819,9.684908 0,3.633251 1.4399863,7.114932 4.009819,9.684908 2.5701183,2.569832 6.0517995,4.009819 9.6849065,4.009819 3.633395,0 7.115076,-1.439987 9.684908,-4.009819 2.569833,-2.570119 4.009819,-6.051514 4.009819,-9.684908 0,-2.71326 -0.801662,-5.361521 -2.308262,-7.6117849 z M 16.134806,6.4852307 c 0.376654,0 0.681665,0.3049827 0.681665,0.6816649 v 9.4681964 c 0,0.374995 -0.305011,0.68165 -0.681665,0.68165 -0.376668,0 -0.681665,-0.306683 -0.681665,-0.68165 V 7.1668956 c 0,-0.3766679 0.305012,-0.6816649 0.681665,-0.6816649 z m 2.933258,4.4799573 C 18.733052,10.79519 18.598069,10.386865 18.768067,10.051854 18.938051,9.7168427 19.34639,9.5818439 19.6814,9.7518567 c 1.350003,0.6816653 2.488263,1.7249833 3.27997,3.0132573 0.796678,1.288316 1.220016,2.768259 1.220016,4.281531 0,0.374996 -0.02666,0.743321 -0.075,1.111646 -0.265011,1.956554 -1.233346,3.756536 -2.720117,5.05838 -1.493272,1.303331 -3.403253,2.018266 -5.379949,2.024981 -0.368325,0 -0.74335,-0.02666 -1.105004,-0.075 -1.963265,-0.264997 -3.763391,-1.23333 -5.065093,-2.71983 -1.3033304,-1.493415 -2.0182665,-3.401682 -2.0182665,-5.379949 0,-0.374982 0.020002,-0.743322 0.075001,-1.111647 0.3816816,-2.843259 2.2366925,-5.276664 4.8682395,-6.4149387 0.346668,-0.14667 0.748335,0.013357 0.896662,0.3583393 0.148328,0.3433254 -0.0084,0.7449934 -0.351682,0.8966624 -2.195122,0.946677 -3.7432503,2.978258 -4.0633901,5.345093 -0.041662,0.306683 -0.061664,0.613336 -0.061664,0.926662 0,1.64327 0.6000085,3.238256 1.6849831,4.479958 1.083319,1.240002 2.583404,2.045123 4.213389,2.263264 0.306683,0.04165 0.620008,0.06833 0.926663,0.06833 1.649984,-0.0067 3.238254,-0.599995 4.4801,-1.691699 1.240002,-1.083317 2.045123,-2.583403 2.270121,-4.213388 0.04166,-0.306683 0.06168,-0.613309 0.06168,-0.926663 0,-2.563261 -1.459987,-4.923381 -3.749965,-6.081513 z"
     fill-rule="evenodd"
     stroke-width="1.20128"
     style="clip-rule:evenodd;isolation:isolate;fill:url(#linearGradient6473-3);stroke-linejoin:round;stroke-miterlimit:1.4142" />
  <path
     id="path5-2"
     class="ColorScheme-Text"
     d="m 22.570272,12.092268 -7.786613,7.786612 h 3.893358 v 9.733265 H 26.46363 V 19.87888 h 3.893357 z"
     color="#c2a3ae"
     fill="#d19494"
     fill-opacity="0.99396"
     stroke-width="0.999988"
     style="color:#cdcac6" />
</svg>
