<?xml version="1.0" encoding="UTF-8" standalone="no"?>
<svg
   viewBox="0 0 22 22"
   version="1.1"
   id="svg398"
   sodipodi:docname="im-kick-user.svg"
   inkscape:version="1.2.2 (b0a8486541, 2022-12-01)"
   xmlns:inkscape="http://www.inkscape.org/namespaces/inkscape"
   xmlns:sodipodi="http://sodipodi.sourceforge.net/DTD/sodipodi-0.dtd"
   xmlns="http://www.w3.org/2000/svg"
   xmlns:svg="http://www.w3.org/2000/svg">
  <sodipodi:namedview
     id="namedview400"
     pagecolor="#ffffff"
     bordercolor="#000000"
     borderopacity="0.25"
     inkscape:showpageshadow="2"
     inkscape:pageopacity="0.0"
     inkscape:pagecheckerboard="0"
     inkscape:deskcolor="#d1d1d1"
     showgrid="false"
     inkscape:zoom="37.318182"
     inkscape:cx="4.6894031"
     inkscape:cy="11.053593"
     inkscape:window-width="1920"
     inkscape:window-height="1021"
     inkscape:window-x="0"
     inkscape:window-y="0"
     inkscape:window-maximized="1"
     inkscape:current-layer="svg398" />
  <defs
     id="defs3051">
    <inkscape:path-effect
       effect="powerclip"
       id="path-effect782"
       is_visible="true"
       lpeversion="1"
       inverse="true"
       flatten="false"
       hide_clip="false"
       message="Use fill-rule evenodd on &lt;b&gt;fill and stroke&lt;/b&gt; dialog if no flatten result after convert clip to paths." />
    <style
       type="text/css"
       id="current-color-scheme">
            .ColorScheme-NegativeText {
                color:#d19494;
            }
        </style>
  </defs>
  <g
     style="fill:currentColor;fill-opacity:1;stroke:none"
     class="ColorScheme-NegativeText"
     transform="translate(-421.714 -525.79)"
     id="g394">
    <path
       d="M432.714 528.79a4 4 0 0 0-4 4 4 4 0 0 0 4 4 4 4 0 0 0 4-4 4 4 0 0 0-4-4m0 1a3 3 0 0 1 3 3 3 3 0 0 1-3 3 3 3 0 0 1-3-3 3 3 0 0 1 3-3M432.714 537.79a8 8 0 0 0-7.927 7h1.007a7 7 0 0 1 6.92-6 7 7 0 0 1 1 .08v-1.009a8 8 0 0 0-1-.07"
       id="path390" />
    <circle
       id="circle392"
       clip-path="none"
       cx="437.21399"
       cy="541.29102"
       r="3.5" />
    <path
       d="m 434.714,540.79 h 5 v 1 h -5 z"
       fill="#ffffff"
       id="path780"
       style="display:block;fill:#4d4d4d" />
  </g>
</svg>
