<?xml version="1.0" encoding="UTF-8" standalone="no"?>
<svg
   viewBox="0 0 22 22"
   version="1.1"
   id="svg531"
   sodipodi:docname="im-user-online.svg"
   inkscape:version="1.2.2 (b0a8486541, 2022-12-01)"
   xmlns:inkscape="http://www.inkscape.org/namespaces/inkscape"
   xmlns:sodipodi="http://sodipodi.sourceforge.net/DTD/sodipodi-0.dtd"
   xmlns="http://www.w3.org/2000/svg"
   xmlns:svg="http://www.w3.org/2000/svg">
  <defs
     id="defs535">
    <inkscape:path-effect
       effect="powerclip"
       id="path-effect762"
       is_visible="true"
       lpeversion="1"
       inverse="true"
       flatten="false"
       hide_clip="false"
       message="Use fill-rule evenodd on &lt;b&gt;fill and stroke&lt;/b&gt; dialog if no flatten result after convert clip to paths." />
  </defs>
  <sodipodi:namedview
     id="namedview533"
     pagecolor="#ffffff"
     bordercolor="#000000"
     borderopacity="0.25"
     inkscape:showpageshadow="2"
     inkscape:pageopacity="0.0"
     inkscape:pagecheckerboard="0"
     inkscape:deskcolor="#d1d1d1"
     showgrid="false"
     inkscape:zoom="37.318182"
     inkscape:cx="4.6894031"
     inkscape:cy="11.053593"
     inkscape:window-width="1920"
     inkscape:window-height="1021"
     inkscape:window-x="0"
     inkscape:window-y="0"
     inkscape:window-maximized="1"
     inkscape:current-layer="svg531" />
  <g
     transform="translate(-421.71429-525.79071)"
     id="g529">
    <g
       style="fill:#aac69f"
       id="g525">
      <path
         d="m432.71429 528.79032a3.99999 4.00003 0 0 0 -4 4 3.99999 4.00003 0 0 0 4 4 3.99999 4.00003 0 0 0 4 -4 3.99999 4.00003 0 0 0 -4 -4m0 1a3 3.00003 0 0 1 3 3 3 3.00003 0 0 1 -3 3 3 3.00003 0 0 1 -3 -3 3 3.00003 0 0 1 3 -3"
         id="path519" />
      <path
         d="M11 12A7.99995 8.00003 0 0 0 3.072266 19H4.080078A6.99996 7.00003 0 0 1 11 13 6.99996 7.00003 0 0 1 12 13.08008V12.07031A7.99995 8.00003 0 0 0 11 12"
         transform="translate(421.71429 525.79071)"
         id="path521" />
      <circle
         id="circle523"
         clip-path="none"
         cx="437.21429"
         cy="541.29071"
         r="3.5" />
      <path
         d="m 438.71428,539.79074 1,1 -3,3 -2,-2 1,-1 1,1 z"
         style="display:block;fill:#4d4d4d;fill-rule:evenodd"
         id="path760" />
    </g>
  </g>
</svg>
