<?xml version="1.0" encoding="UTF-8"?>
<svg id="svg1" version="1.1" viewBox="0 0 22 22" xmlns="http://www.w3.org/2000/svg">
 <defs id="defs3051">
  <style id="current-color-scheme" type="text/css">.ColorScheme-Text {
        color:#dedede;
      }</style>
 </defs>
 <path id="path7" class="ColorScheme-Text" d="m15 3v3h-3v1h3v3h1v-3h3v-1h-3v-3h-1zm-10.5 1c-0.7 0-1.5 0.7-1.5 1.5s0.8 1.5 1.5 1.5c0.83 0 1.5-0.7 1.5-1.5s-0.67-1.5-1.5-1.5zm0 6c-0.768 0-1.5 0.71-1.5 1.5 0 0.8 0.732 1.5 1.5 1.5 0.8 0 1.5-0.7 1.5-1.5 0-0.79-0.7-1.5-1.5-1.5zm3.5 2v1h4v-1h-4zm-3.5 4c-0.768 0-1.5 0.7-1.5 1.5s0.732 1.5 1.5 1.5c0.8 0 1.5-0.7 1.5-1.5s-0.7-1.5-1.5-1.5zm3.5 0v1h11v-1h-11zm0 2v1h4v-1h-4z" fill="currentColor"/>
</svg>
