<?xml version="1.0" encoding="UTF-8" standalone="no"?>
<svg
   viewBox="0 0 24 24"
   version="1.1"
   id="svg187"
   sodipodi:docname="system-log-out.svg"
   inkscape:version="1.2.2 (b0a8486541, 2022-12-01)"
   xmlns:inkscape="http://www.inkscape.org/namespaces/inkscape"
   xmlns:sodipodi="http://sodipodi.sourceforge.net/DTD/sodipodi-0.dtd"
   xmlns="http://www.w3.org/2000/svg"
   xmlns:svg="http://www.w3.org/2000/svg">
  <sodipodi:namedview
     id="namedview189"
     pagecolor="#ffffff"
     bordercolor="#000000"
     borderopacity="0.25"
     inkscape:showpageshadow="2"
     inkscape:pageopacity="0.0"
     inkscape:pagecheckerboard="0"
     inkscape:deskcolor="#d1d1d1"
     showgrid="false"
     inkscape:zoom="35.916667"
     inkscape:cx="10.190255"
     inkscape:cy="12"
     inkscape:window-width="1920"
     inkscape:window-height="1021"
     inkscape:window-x="0"
     inkscape:window-y="0"
     inkscape:window-maximized="1"
     inkscape:current-layer="svg187" />
  <defs
     id="defs3051">
    <style
       type="text/css"
       id="current-color-scheme">
      .ColorScheme-Text {
        color:#dedede;
      }
      </style>
  </defs>
  <path
     id="path163"
     d="m 18.072948,7.9404261 c -0.10755,-0.1591099 -0.06488,-0.37511 0.09422,-0.4826599 0.159116,-0.10756 0.375999,-0.06578 0.483549,0.093334 C 19.530684,8.8693001 19.999999,10.4177 19.999999,12 c 0,2.1217 -0.84178,4.156401 -2.343966,5.656 C 16.156525,19.1582 14.121873,20 11.999999,20 9.878223,20 7.8435702,19.158251 6.343964,17.656 4.8418006,16.156501 4.000001,14.1218 4.000001,12 c 0,-2.1216999 0.8417798,-4.1563999 2.3439651,-5.6559998 1.499508,-1.4985998 3.5341607,-2.3439998 5.6560349,-2.3439998 1.189309,0 2.368872,0.2639999 3.443591,0.77956 0.172446,0.081776 0.24622,0.2897699 0.163556,0.4622199 -0.08267,0.17244 -0.289782,0.24622 -0.463113,0.16355 -0.98041,-0.46577 -2.055129,-0.70933 -3.144024,-0.70933 -1.937784,0 -3.7946451,0.7680099 -5.1652892,2.1386999 C 5.4640786,8.2054002 4.6960136,10.0622 4.6960136,12 c 0,1.937799 0.7680154,3.7947 2.1387082,5.165301 1.3706441,1.370698 3.2275052,2.138699 5.1652892,2.138699 1.937783,0 3.794644,-0.768011 5.165288,-2.138699 1.370644,-1.3707 2.138709,-3.227502 2.138709,-5.165301 0,-1.4471 -0.427555,-2.8594998 -1.23105,-4.0595999 z m -7.960032,0.58311 c 0.02933,0.04 0.05777,0.076446 0.09422,0.10933 l 0.0036,0.00353 1.688914,1.6879999 c 0.141328,0.14222 0.141328,0.37245 0,0.51467 l -2.2702284,2.270198 c -0.1431091,0.14222 -0.3733317,0.14222 -0.5146686,0 -0.1413449,-0.14311 -0.1404681,-0.37422 0.00173,-0.516441 L 11.12712,10.582123 9.6978035,9.1528237 C 9.6035822,9.0621556 9.5235763,8.9563836 9.4542515,8.8434836 9.3858104,8.7270437 9.3493682,8.5928136 9.3458049,8.4577137 c 0,-0.22489 0.1271115,-0.432 0.3235578,-0.5413301 0.1742094,-0.090668 0.3706463,-0.1342187 0.5706463,-0.1235587 h 0.04 l 4.429315,0.1342213 h 0.0036 c 0.287058,0.010668 0.559946,0.1271101 0.76352,0.3306699 0.207107,0.2000001 0.33422,0.4693301 0.352884,0.75646 v 0.00354 l 0.272889,4.6185999 0.0035,0.09067 c 0.01067,0.185781 -0.02933,0.375111 -0.120004,0.54222 -0.105793,0.188436 -0.305793,0.308436 -0.523563,0.312886 -0.135104,-0.0046 -0.269334,-0.04444 -0.382221,-0.112891 -0.112886,-0.06577 -0.217779,-0.149329 -0.309332,-0.243549 l -1.236463,-1.2365 -2.892401,2.889699 c -0.283559,0.283561 -0.7449098,0.283561 -1.0284503,-9.14e-4 l -1.271117,-1.271108 c -0.141327,-0.14222 -0.1404409,-0.37334 0.00175,-0.51466 0.1413369,-0.14133 0.3715497,-0.142221 0.5137826,-0.0017 l 1.0124041,1.0151 c 0.1422223,0.142221 0.3724353,0.14311 0.5146673,9.15e-4 l 2.892526,-2.889911 c 0.142224,-0.14133 0.372436,-0.14133 0.514669,0 l 1.495078,1.496 c 0.0035,0.0037 0.0035,0.0037 0.0071,0.0071 0.02578,0.02577 0.05511,0.05067 0.08356,0.07645 v -0.04357 l -0.0036,-0.08354 -0.268449,-4.6071139 c -0.0079,-0.1093033 -0.05863,-0.2079634 -0.135082,-0.2844134 -0.07645,-0.075557 -0.177781,-0.12 -0.287113,-0.12356 L 10.265663,8.5197572 h -0.04356 c -0.008,0 -0.01155,0 -0.01867,-0.00354 -0.02933,0 -0.05777,0 -0.09066,0.00711 z"
     style="clip-rule:evenodd;isolation:isolate;fill:#bdb3c1;fill-rule:evenodd;stroke-width:1.20998;stroke-linejoin:round;stroke-miterlimit:1.4142" />
</svg>
