<?xml version="1.0" encoding="UTF-8" standalone="no"?>
<svg
   viewBox="0 0 24 24"
   version="1.1"
   id="svg569"
   sodipodi:docname="system-suspend.svg"
   inkscape:version="1.2.2 (b0a8486541, 2022-12-01)"
   xmlns:inkscape="http://www.inkscape.org/namespaces/inkscape"
   xmlns:sodipodi="http://sodipodi.sourceforge.net/DTD/sodipodi-0.dtd"
   xmlns="http://www.w3.org/2000/svg"
   xmlns:svg="http://www.w3.org/2000/svg">
  <defs
     id="defs573" />
  <sodipodi:namedview
     id="namedview571"
     pagecolor="#ffffff"
     bordercolor="#000000"
     borderopacity="0.25"
     inkscape:showpageshadow="2"
     inkscape:pageopacity="0.0"
     inkscape:pagecheckerboard="0"
     inkscape:deskcolor="#d1d1d1"
     showgrid="false"
     inkscape:zoom="35.916667"
     inkscape:cx="10.190255"
     inkscape:cy="12"
     inkscape:window-width="1920"
     inkscape:window-height="1021"
     inkscape:window-x="0"
     inkscape:window-y="0"
     inkscape:window-maximized="1"
     inkscape:current-layer="svg569" />
  <style
     type="text/css"
     id="current-color-scheme">
        .ColorScheme-Text {
            color:#dedede;
        }
    </style>
  <g
     id="g412"
     transform="matrix(0.71422193,0,0,0.73853198,4.3827088,3.7743564)"
     style="fill:#aac69f;fill-opacity:1;stroke-width:1.36037">
    <path
       id="path140"
       d="m 9.4681,4.7335 c -3.1599,0.54161 -5.5458,3.2052 -5.5458,6.4043 0,3.5987 3.0218,6.521 6.743,6.521 3.3043,0 6.0573,-2.3037 6.6211,-5.3548 l 0.0012,-0.0084 c -0.91724,0.64392 -2.0398,1.0158 -3.2508,1.0158 -3.1014,0 -5.6192,-2.4349 -5.6192,-5.4342 0,-1.1711 0.38457,-2.2567 1.0504,-3.1438 z m 8.1444,6.6017 0.33728,-0.39598 0.02116,0.19859 -0.0697,0.66799 -0.0012,0.01083 c -0.3211,3.5843 -3.4425,6.3862 -7.2346,6.3862 -4.0324,0 -7.3056,-3.1654 -7.3056,-7.0651 0,-3.6709 2.9023,-6.6919 6.6148,-6.9977 l 0.69073,-0.067404 0.20535,0.020464 -0.40946,0.32617 -0.20162,0.23711 -0.01,0.00963 c -0.79773,0.85214 -1.2707,1.9787 -1.2707,3.2112 0,2.6996 2.2663,4.8914 5.0579,4.8914 1.2794,0 2.4493,-0.46097 3.3304,-1.2385 z"
       fill-rule="evenodd"
       stroke="#aac69f"
       stroke-linejoin="round"
       stroke-miterlimit="1.4142"
       stroke-width="0.970683"
       style="isolation:isolate;fill:#aac69f;fill-opacity:1" />
    <path
       id="path147"
       d="m 19.168,5.641 c -0.15059,-0.21544 -0.09085,-0.50791 0.13192,-0.65355 0.22278,-0.14563 0.52645,-0.089068 0.67704,0.12638 1.2321,1.7849 1.8892,3.8816 1.8892,6.024 0,2.873 -1.1786,5.628 -3.2819,7.6584 -2.0996,2.0341 -4.9484,3.1739 -7.9191,3.1739 -2.9708,0 -5.8196,-1.1398 -7.9191,-3.1739 -2.1033,-2.0305 -3.2819,-4.7855 -3.2819,-7.6584 0,-2.873 1.1786,-5.628 3.2819,-7.6584 2.0996,-2.0292 4.9484,-3.1739 7.9191,-3.1739 1.6652,0 3.3168,0.35747 4.8214,1.0555 0.24144,0.11073 0.34474,0.39237 0.229,0.62587 -0.11574,0.2335 -0.40573,0.33339 -0.64842,0.22146 -1.3728,-0.63068 -2.8774,-0.96046 -4.402,-0.96046 -2.7131,0 -5.313,1.0399 -7.2321,2.8958 -1.9191,1.8559 -2.9944,4.3702 -2.9944,6.994 0,2.6238 1.0753,5.1381 2.9944,6.994 1.9191,1.8559 4.519,2.8958 7.2321,2.8958 2.7131,0 5.313,-1.0399 7.2321,-2.8958 1.9191,-1.8559 2.9944,-4.3702 2.9944,-6.994 0,-1.9594 -0.59863,-3.8719 -1.7237,-5.4968 z"
       stroke-width="1.66497"
       style="isolation:isolate;fill:#aac69f;fill-opacity:1" />
  </g>
</svg>
