<?xml version="1.0" encoding="UTF-8" standalone="no"?>
<svg
   viewBox="0 0 24 24"
   width="24"
   height="24"
   version="1.1"
   id="svg4142"
   sodipodi:docname="system-log-out-rtl.svg"
   inkscape:version="1.2.2 (b0a8486541, 2022-12-01)"
   xmlns:inkscape="http://www.inkscape.org/namespaces/inkscape"
   xmlns:sodipodi="http://sodipodi.sourceforge.net/DTD/sodipodi-0.dtd"
   xmlns="http://www.w3.org/2000/svg"
   xmlns:svg="http://www.w3.org/2000/svg">
  <sodipodi:namedview
     id="namedview4144"
     pagecolor="#ffffff"
     bordercolor="#000000"
     borderopacity="0.25"
     inkscape:showpageshadow="2"
     inkscape:pageopacity="0.0"
     inkscape:pagecheckerboard="0"
     inkscape:deskcolor="#d1d1d1"
     showgrid="false"
     inkscape:zoom="35.916667"
     inkscape:cx="10.190255"
     inkscape:cy="12"
     inkscape:window-width="1920"
     inkscape:window-height="1021"
     inkscape:window-x="0"
     inkscape:window-y="0"
     inkscape:window-maximized="1"
     inkscape:current-layer="svg4142" />
  <defs
     id="defs3051">
    <style
       type="text/css"
       id="current-color-scheme">
      .ColorScheme-Text {
        color:#dedede;
      }
      </style>
  </defs>
  <path
     id="path163"
     d="m 18.072932,7.9404658 c -0.107555,-0.15911 -0.06489,-0.3751118 0.09422,-0.4826611 0.159114,-0.1075572 0.375999,-0.06578 0.483552,0.093333 C 19.530675,8.8693301 20,10.417785 20,12.000001 20,14.121739 19.158219,16.156409 17.656007,17.655997 16.156489,19.158175 14.121831,20 12,20 9.878241,20 7.843584,19.15825 6.343993,17.655997 4.841779,16.156482 4,14.121814 4,12.000001 4,9.8782613 4.841779,7.8435926 6.343993,6.3440045 7.84351,4.8453789 9.878167,4.0000002 12,4.0000002 c 1.189307,0 2.368847,0.2640014 3.443575,0.7795579 0.172445,0.081776 0.246222,0.2897743 0.163552,0.4622187 -0.08266,0.1724444 -0.289778,0.2462244 -0.463113,0.1635525 -0.980407,-0.4657727 -2.055135,-0.7093317 -3.144004,-0.7093317 -1.937791,0 -3.794674,0.7680077 -5.165327,2.1386937 -1.370651,1.3706859 -2.138669,3.2275137 -2.138669,5.1653387 0,1.937752 0.768018,3.794652 2.138669,5.165339 1.370653,1.370686 3.227536,2.138693 5.165327,2.138693 1.93779,0 3.794677,-0.768007 5.165328,-2.138693 1.370652,-1.370687 2.138668,-3.227512 2.138668,-5.165339 0,-1.447094 -0.427551,-2.8595389 -1.231071,-4.0595647 z m -7.960058,0.5831098 c 0.02933,0.04 0.05778,0.076445 0.09422,0.1093333 l 0.0035,0.00353 1.688879,1.6880182 c 0.141331,0.142222 0.141331,0.372446 0,0.514668 L 9.62925,13.109311 c -0.143108,0.142221 -0.37333,0.142221 -0.514667,0 C 8.973255,12.9662 8.974137,12.735088 9.116483,12.592866 L 11.12716,10.582186 9.697834,9.1528602 C 9.603596,9.0621956 9.52359,8.9564229 9.454259,8.8435281 9.38582,8.7270868 9.349369,8.5928614 9.345812,8.4577548 c 0,-0.2248864 0.127112,-0.431996 0.323555,-0.5413296 0.174223,-0.090668 0.370663,-0.1342181 0.570667,-0.123556 h 0.04 l 4.429254,0.134218 h 0.0035 c 0.287112,0.010667 0.559995,0.1271107 0.76357,0.3306662 0.207111,0.2000018 0.33422,0.4693338 0.352886,0.7564575 v 0.00353 l 0.272891,4.6186341 0.0035,0.09067 c 0.01063,0.185777 -0.02934,0.37511 -0.120011,0.542216 -0.105769,0.188445 -0.305778,0.30844 -0.523552,0.312889 -0.135111,-0.0044 -0.269334,-0.04444 -0.382222,-0.112893 -0.112884,-0.06577 -0.217775,-0.14933 -0.309336,-0.243551 l -1.236546,-1.236453 -2.892399,2.889746 c -0.283555,0.283555 -0.744912,0.283555 -1.028444,-8.89e-4 l -1.27109,-1.271103 c -0.141329,-0.142221 -0.140447,-0.373334 0.0019,-0.51466 0.141336,-0.141333 0.371551,-0.142222 0.513777,-0.0017 l 1.012409,1.015076 c 0.142226,0.142221 0.372441,0.143109 0.514666,8.88e-4 l 2.892398,-2.889824 c 0.142218,-0.141333 0.372441,-0.141333 0.514666,0 l 1.495072,1.49596 c 0.0035,0.0036 0.0035,0.0036 0.0071,0.0071 0.02578,0.02577 0.05512,0.05067 0.08356,0.07644 v -0.03289 -0.01067 l -0.0035,-0.08356 -0.268444,-4.6070841 c -0.008,-0.1093266 -0.05867,-0.2079907 -0.135113,-0.284436 -0.07644,-0.075557 -0.177779,-0.1200026 -0.287111,-0.1235561 L 10.265676,8.5198662 h -0.04355 c -0.008,0 -0.01155,0 -0.01867,-0.00353 -0.02933,0 -0.05778,0 -0.09066,0.00712 z"
     style="clip-rule:evenodd;isolation:isolate;fill:#bdb3c1;fill-rule:evenodd;stroke-width:1.21;stroke-linejoin:round;stroke-miterlimit:1.4142" />
</svg>
