<?xml version="1.0" encoding="UTF-8" standalone="no"?>
<svg
   viewBox="0 0 24 24"
   version="1.1"
   id="svg322"
   sodipodi:docname="system-suspend-hibernate.svg"
   inkscape:version="1.2.2 (b0a8486541, 2022-12-01)"
   xmlns:inkscape="http://www.inkscape.org/namespaces/inkscape"
   xmlns:sodipodi="http://sodipodi.sourceforge.net/DTD/sodipodi-0.dtd"
   xmlns="http://www.w3.org/2000/svg"
   xmlns:svg="http://www.w3.org/2000/svg">
  <defs
     id="defs326" />
  <sodipodi:namedview
     id="namedview324"
     pagecolor="#ffffff"
     bordercolor="#000000"
     borderopacity="0.25"
     inkscape:showpageshadow="2"
     inkscape:pageopacity="0.0"
     inkscape:pagecheckerboard="0"
     inkscape:deskcolor="#d1d1d1"
     showgrid="false"
     inkscape:zoom="35.916667"
     inkscape:cx="10.190255"
     inkscape:cy="12"
     inkscape:window-width="1920"
     inkscape:window-height="1021"
     inkscape:window-x="0"
     inkscape:window-y="0"
     inkscape:window-maximized="1"
     inkscape:current-layer="svg322" />
  <style
     type="text/css"
     id="current-color-scheme">
        .ColorScheme-Text {
            color:#dedede;
        }
    </style>
  <g
     id="g426"
     transform="matrix(0.5699016,0,0,0.58927905,3.3049657,2.8200754)"
     style="fill:#f3dea4;fill-opacity:1;stroke-width:1.17655">
    <path
       id="path36"
       d="m 27.245,7.8282 c -0.21232,-0.30376 -0.12809,-0.71612 0.186,-0.92145 0.3141,-0.20533 0.74226,-0.12558 0.95458,0.17818 1.7372,2.5166 2.6637,5.4727 2.6637,8.4933 0,4.0507 -1.6617,7.935 -4.6272,10.798 -2.9602,2.8679 -6.9768,4.4749 -11.165,4.4749 -4.1886,0 -8.2052,-1.607 -11.165,-4.4749 -2.9655,-2.8628 -4.6272,-6.7472 -4.6272,-10.798 0,-4.0507 1.6617,-7.935 4.6272,-10.798 2.9602,-2.8611 6.9768,-4.4749 11.165,-4.4749 2.3478,0 4.6764,0.504 6.7979,1.4882 0.34042,0.15612 0.48606,0.55321 0.32287,0.88243 -0.16319,0.32921 -0.57204,0.47006 -0.91422,0.31224 -1.9355,-0.88921 -4.057,-1.3542 -6.2065,-1.3542 -3.8253,0 -7.491,1.4662 -10.197,4.0829 -2.7058,2.6167 -4.2219,6.1617 -4.2219,9.8611 0,3.6994 1.5161,7.2444 4.2219,9.8611 2.7058,2.6167 6.3715,4.0829 10.197,4.0829 3.8253,0 7.491,-1.4662 10.197,-4.0829 2.7058,-2.6167 4.2219,-6.1617 4.2219,-9.8611 0,-2.7627 -0.84403,-5.4592 -2.4303,-7.7501 z"
       stroke-width="2.03025"
       style="isolation:isolate;fill:#f3dea4;fill-opacity:1" />
    <path
       id="path1248"
       d="M 8.8433,3.707 7.6041,4.4404 9.9568,8.6202 6.7445,7.73782 l -0.37119,1.4181 4.5938,1.2634 2.2439,3.985 h -4.485 l -3.363,-3.4522 -1.0103,1.0371 2.3527,2.4151 h -4.7055 v 1.4668 h 4.7055 l -2.3527,2.4151 1.0103,1.0371 3.363,-3.4522 h 4.4766 l -2.2383,3.9793 -4.5938,1.2634 0.3684,1.4181 3.2151,-0.88524 -2.3527,4.1827 1.2364,0.7334 2.3527,-4.1827 0.86239,3.3003 1.3787,-0.38103 -1.2308,-4.7184 2.6514,-4.7098 h 0.0084 l 2.6542,4.7213 -1.2308,4.7156 1.3815,0.37816 0.8596,-3.2975 2.3527,4.1827 1.2392,-0.7334 -2.3527,-4.1827 3.2123,0.88238 0.37119,-1.4152 -4.5938,-1.2634 -2.2439,-3.9879 h 4.485 l 3.363,3.4522 1.0103,-1.0371 -2.3527,-2.4151 h 4.7055 v -1.4668 h -4.7055 l 2.3527,-2.4151 -0.07256,-0.08594 h -1.8615 l -2.4393,2.501 h -6.1344 v -0.0029 l -0.0056,-0.0029 -2.6486,-4.7127 1.2308,-4.7156 -1.3815,-0.38103 -0.8596,3.3003 z"
       stroke-width="0.341143"
       style="isolation:isolate;fill:#f3dea4;fill-opacity:1" />
    <path
       id="rect887-61"
       d="m 19.35,6.2908 v 0.74063 h 1.6648 L 19.35,8.72963 v 0.52365 h 2.9042 V 8.51265 h -1.6648 l 1.6648,-1.6982 V 6.2908 h -0.51333 z"
       stroke-width="0.235308"
       style="isolation:isolate;fill:#f3dea4;fill-opacity:1" />
    <path
       id="rect887-8"
       d="m 15.617,9.7533 v 0.73369 h 1.6137 l -1.6137,1.6823 v 0.51874 h 2.815 v -0.73369 h -1.6137 l 1.6137,-1.6823 V 9.7533 h -0.49756 z"
       stroke-width="0.235308"
       style="isolation:isolate;fill:#f3dea4;fill-opacity:1" />
  </g>
</svg>
