<?xml version="1.0" encoding="UTF-8" standalone="no"?>
<svg
   version="1.1"
   viewBox="0 0 24 24"
   id="svg569"
   sodipodi:docname="system-lock-screen.svg"
   inkscape:version="1.2.2 (b0a8486541, 2022-12-01)"
   xmlns:inkscape="http://www.inkscape.org/namespaces/inkscape"
   xmlns:sodipodi="http://sodipodi.sourceforge.net/DTD/sodipodi-0.dtd"
   xmlns="http://www.w3.org/2000/svg"
   xmlns:svg="http://www.w3.org/2000/svg">
  <sodipodi:namedview
     id="namedview571"
     pagecolor="#ffffff"
     bordercolor="#000000"
     borderopacity="0.25"
     inkscape:showpageshadow="2"
     inkscape:pageopacity="0.0"
     inkscape:pagecheckerboard="0"
     inkscape:deskcolor="#d1d1d1"
     showgrid="false"
     inkscape:zoom="35.916667"
     inkscape:cx="10.190255"
     inkscape:cy="12"
     inkscape:window-width="1920"
     inkscape:window-height="1021"
     inkscape:window-x="0"
     inkscape:window-y="0"
     inkscape:window-maximized="1"
     inkscape:current-layer="svg569" />
  <defs
     id="defs565">
    <style
       id="current-color-scheme"
       type="text/css">.ColorScheme-Text {
        color:#dedede;
      }</style>
  </defs>
  <g
     id="g3059"
     transform="matrix(2.8795692,0,0,2.8795692,-319.94961,-274.2672)"
     style="clip-rule:evenodd;fill-rule:evenodd;stroke-width:1.31251;stroke-linejoin:round;stroke-miterlimit:1.4142">
    <g
       id="g813"
       transform="matrix(1.3125178,0,0,1.3125178,-36.020575,-31.06562)"
       style="stroke-width:0.999991">
      <path
         id="path141-7"
         d="m 116.88,98.337 c -0.0285,-0.0421 -0.0172,-0.09925 0.0249,-0.1277 0.0421,-0.02846 0.0995,-0.0174 0.12794,0.02469 0.23283,0.34877 0.35702,0.75846 0.35702,1.1771 0,0.56138 -0.22272,1.0997 -0.62018,1.4965 -0.39675,0.39746 -0.9351,0.62019 -1.4965,0.62019 -0.56138,0 -1.0997,-0.22273 -1.4965,-0.62019 -0.39746,-0.39674 -0.62018,-0.93508 -0.62018,-1.4965 0,-0.56138 0.22272,-1.0997 0.62018,-1.4965 0.39675,-0.39653 0.9351,-0.62019 1.4965,-0.62019 0.31469,0 0.62678,0.06985 0.9111,0.20625 0.0456,0.02164 0.0651,0.07667 0.0433,0.1223 -0.0219,0.04562 -0.0767,0.06515 -0.12253,0.04327 -0.25942,-0.12324 -0.54375,-0.18768 -0.83186,-0.18768 -0.51271,0 -1.004,0.20319 -1.3666,0.56584 -0.36266,0.36265 -0.56584,0.85394 -0.56584,1.3667 0,0.51269 0.2032,1.004 0.56584,1.3666 0.36267,0.36265 0.85396,0.56585 1.3666,0.56585 0.51271,0 1.004,-0.2032 1.3666,-0.56585 0.3626,-0.36265 0.56585,-0.85394 0.56585,-1.3666 0,-0.38288 -0.11313,-0.75658 -0.32574,-1.0741 z"
         style="clip-rule:evenodd;isolation:isolate;fill:#c2a3ae;fill-rule:evenodd;stroke-width:0.317838;stroke-linejoin:round;stroke-miterlimit:1.4142" />
      <path
         id="path2-76-3-3-8"
         class="ColorScheme-Text"
         d="m 115.28,97.959 c -0.44505,0 -0.8063,0.35135 -0.8063,0.78427 v 0.62741 h -0.32253 v 1.4117 h 2.2577 v -1.4117 h -0.32253 v -0.62741 c 0,-0.43292 -0.36123,-0.78427 -0.80633,-0.78427 z m 0,0.15685 c 0.3561,0 0.64507,0.28108 0.64507,0.62741 v 0.62741 h -0.16128 v -0.62741 c 0,-0.25975 -0.21674,-0.47056 -0.48379,-0.47056 -0.26705,0 -0.48378,0.21081 -0.48378,0.47056 v 0.62741 h -0.16126 v -0.62741 c 0,-0.34633 0.28897,-0.62741 0.64504,-0.62741 z m 0,0.31371 c 0.17805,0 0.32253,0.14054 0.32253,0.31371 v 0.62741 h -0.64504 v -0.62741 c 0,-0.17317 0.14451,-0.31371 0.32251,-0.31371 z m -0.96757,1.098 h 1.9352 v 1.098 h -1.9352 z"
         style="color:#cdcac6;clip-rule:evenodd;fill:#c2a3ae;fill-rule:evenodd;stroke-width:0.264578;stroke-linejoin:round;stroke-miterlimit:1.4142" />
    </g>
  </g>
</svg>
