<?xml version="1.0" encoding="UTF-8" standalone="no"?>
<svg
   version="1.1"
   viewBox="0 0 24 24"
   id="svg521"
   sodipodi:docname="system-shutdown.svg"
   inkscape:version="1.2.2 (b0a8486541, 2022-12-01)"
   xmlns:inkscape="http://www.inkscape.org/namespaces/inkscape"
   xmlns:sodipodi="http://sodipodi.sourceforge.net/DTD/sodipodi-0.dtd"
   xmlns="http://www.w3.org/2000/svg"
   xmlns:svg="http://www.w3.org/2000/svg">
  <sodipodi:namedview
     id="namedview523"
     pagecolor="#ffffff"
     bordercolor="#000000"
     borderopacity="0.25"
     inkscape:showpageshadow="2"
     inkscape:pageopacity="0.0"
     inkscape:pagecheckerboard="0"
     inkscape:deskcolor="#d1d1d1"
     showgrid="false"
     inkscape:zoom="35.916667"
     inkscape:cx="10.190255"
     inkscape:cy="12"
     inkscape:window-width="1920"
     inkscape:window-height="1021"
     inkscape:window-x="0"
     inkscape:window-y="0"
     inkscape:window-maximized="1"
     inkscape:current-layer="svg521" />
  <defs
     id="defs517">
    <style
       id="current-color-scheme"
       type="text/css">.ColorScheme-Text {
        color:#dedede;
      }</style>
  </defs>
  <path
     id="path141"
     d="m 18.07283,7.9405271 c -0.10756,-0.1591099 -0.06488,-0.3751099 0.09422,-0.4826599 0.15911,-0.10755 0.376,-0.065779 0.48355,0.093333 C 19.53058,8.8694003 20,10.4178 20,12 20,14.121799 19.15822,16.156401 17.656,17.656 16.1565,19.1582 14.121799,20 12,20 9.8782002,20 7.8435992,19.15819 6.3440002,17.656 4.8417998,16.1565 3.9999998,14.121799 3.9999998,12 c 0,-2.1217998 0.8417801,-4.1563998 2.3440004,-5.6559999 1.4995,-1.4987 3.5342,-2.344 5.6559998,-2.344 1.1893,0 2.368899,0.264 3.4435,0.77951 0.17245,0.081774 0.246219,0.2897701 0.16356,0.46222 -0.08267,0.1724401 -0.28977,0.2462201 -0.46311,0.16356 -0.98047,-0.46577 -2.055099,-0.70933 -3.144001,-0.70933 -1.937799,0 -3.7946988,0.7679701 -5.1652988,2.1386001 -1.3707,1.3707 -2.1386004,3.2274998 -2.1386004,5.1652998 0,1.937699 0.7680204,3.7946 2.1386004,5.1653 1.370699,1.3706 3.2275998,2.1386 5.1652988,2.1386 1.937801,0 3.794701,-0.76797 5.165301,-2.1386 1.3706,-1.3707 2.138601,-3.2275 2.138601,-5.1653 0,-1.447099 -0.427551,-2.8594998 -1.231101,-4.0595998 z m -6.000901,-1.0151 c 0.200881,0 0.363551,0.1626601 0.363551,0.3635501 v 5.0496998 c 0,0.2 -0.16267,0.36355 -0.363551,0.36355 -0.200889,0 -0.363549,-0.16356 -0.363549,-0.36355 V 7.2889772 c 0,-0.20089 0.16267,-0.3635501 0.363549,-0.3635501 z m 1.564401,2.3893001 c -0.17867,-0.090665 -0.25066,-0.30844 -0.16,-0.48711 0.09066,-0.17867 0.30844,-0.25067 0.48711,-0.16 0.72,0.36355 1.3271,0.91999 1.7493,1.6071008 0.42489,0.6871 0.65067,1.476399 0.65067,2.283499 0,0.2 -0.01422,0.39644 -0.04,0.59288 -0.14134,1.0435 -0.65778,2.0035 -1.4507,2.6978 -0.79643,0.69511 -1.8151,1.0764 -2.8693,1.08 -0.19644,0 -0.39645,-0.01422 -0.589331,-0.04 -1.047101,-0.141331 -2.0070998,-0.65777 -2.7013998,-1.450601 -0.69511,-0.796459 -1.0764,-1.8142 -1.0764,-2.8693 0,-0.19999 0.01067,-0.39644 0.04,-0.592879 0.20356,-1.5164 1.1929,-2.8142005 2.5963998,-3.4213005 0.18489,-0.078221 0.399109,0.00712 0.47822,0.1911099 0.07911,0.1831101 -0.0045,0.39733 -0.18756,0.4782201 -1.1706998,0.5048899 -1.9963998,1.5883995 -2.1670998,2.8506995 -0.02222,0.16356 -0.03289,0.32711 -0.03289,0.49422 0,0.876441 0.32,1.727101 0.89868,2.3893 0.57777,0.661331 1.3777998,1.090701 2.2471008,1.207101 0.163559,0.02221 0.330669,0.03644 0.494219,0.03644 0.87998,-0.0036 1.7271,-0.32 2.389401,-0.902219 0.661329,-0.577771 1.090699,-1.377801 1.210699,-2.2471 0.02222,-0.16356 0.03289,-0.327101 0.03289,-0.494221 0,-1.367099 -0.77868,-2.6257992 -2.000001,-3.2434992 z"
     style="clip-rule:evenodd;isolation:isolate;fill:#d19494;fill-rule:evenodd;stroke-width:1.20128;stroke-linejoin:round;stroke-miterlimit:1.4142" />
</svg>
