<?xml version="1.0" encoding="UTF-8"?>
<svg width="16" height="16" version="1.1" xmlns="http://www.w3.org/2000/svg">
 <path d="m7.5 0c-0.277 0-0.5 0.223-0.5 0.5v7.7051c0 0.554-0.446 1-1 1s-1-0.446-1-1v-6.7051c0-0.277-0.223-0.5-0.5-0.5s-0.5 0.223-0.5 0.5v7.5c0 0.554-0.446 1-1 1s-1-0.446-1-1v-4.5c0-0.277-0.223-0.5-0.5-0.5s-0.5 0.223-0.5 0.5v8.5c0 1 1 3 3 3h6c1 0 1.3262-0.33984 1.3262-0.33984 0.027751-0.018362 0.053641-0.039969 0.078125-0.064453l4.2422-4.2422c0.19587-0.19587 0.19587-0.51116 0-0.70703-0.19586-0.19586-0.51116-0.19586-0.70703 0l-2.4121 2.4121s-1.5273 0.6511-1.5273-1.0586v-9.5c0-0.277-0.223-0.5-0.5-0.5s-0.5 0.223-0.5 0.5v5.123c0 0.554-0.446 1-1 1s-1-0.446-1-1v-7.123c0-0.277-0.223-0.5-0.5-0.5zm0.14453 9.0527c0.35977 0.3402 0.83045 0.57031 1.3555 0.57031 0.38722 0 0.69108-0.22328 1-0.41992v2.7969c0 0.57631 0.13266 1.1034 0.45703 1.5098 0.28762 0.36033 0.69251 0.5041 1.041 0.57812l-0.80078 0.80078a1.0001 1.0001 0 0 0-0.015625 0.011719c0.001415-0.004408-0.004619-0.003834-0.023438 0.003906-0.075263 0.030957-0.27149 0.095703-0.6582 0.095703h-6c-0.66666 0-1.111-0.30276-1.4688-0.75s-0.53125-1.0833-0.53125-1.25v-2.4199c0.30892 0.19664 0.61278 0.41992 1 0.41992 0.83194 0 1.4209-0.59699 1.7188-1.332 0.35252 0.30763 0.78525 0.53711 1.2812 0.53711 0.76254 0 1.3081-0.51219 1.6445-1.1523z" fill="#dedede"/>
</svg>
