<?xml version="1.0" encoding="UTF-8" standalone="no"?>
<svg
   width="16"
   height="16"
   version="1.1"
   id="svg777"
   sodipodi:docname="system-shutdown-symbolic.svg"
   inkscape:version="1.2.2 (b0a8486541, 2022-12-01)"
   xmlns:inkscape="http://www.inkscape.org/namespaces/inkscape"
   xmlns:sodipodi="http://sodipodi.sourceforge.net/DTD/sodipodi-0.dtd"
   xmlns="http://www.w3.org/2000/svg"
   xmlns:svg="http://www.w3.org/2000/svg">
  <defs
     id="defs781" />
  <sodipodi:namedview
     id="namedview779"
     pagecolor="#ffffff"
     bordercolor="#000000"
     borderopacity="0.25"
     inkscape:showpageshadow="2"
     inkscape:pageopacity="0.0"
     inkscape:pagecheckerboard="0"
     inkscape:deskcolor="#d1d1d1"
     showgrid="false"
     inkscape:zoom="53.875"
     inkscape:cx="6.7935035"
     inkscape:cy="8"
     inkscape:window-width="1920"
     inkscape:window-height="1021"
     inkscape:window-x="0"
     inkscape:window-y="0"
     inkscape:window-maximized="1"
     inkscape:current-layer="svg777" />
  <path
     id="path141"
     d="m 12.934177,4.7016782 c -0.08739,-0.1292769 -0.05272,-0.3047768 0.07655,-0.3921612 0.129277,-0.087384 0.3055,-0.053445 0.392885,0.075833 0.714983,1.0710375 1.096387,2.3291124 1.096387,3.6146498 0,1.7239622 -0.683946,3.3770752 -1.9045,4.5954992 C 11.377158,13.816038 9.7239636,14.5 8.0000018,14.5 6.2760389,14.5 4.6229265,13.816029 3.4045016,12.595499 2.1839641,11.377156 1.5000014,9.723962 1.5000014,7.9999998 c 0,-1.7239622 0.6839464,-3.3770747 1.9045002,-4.5954997 C 4.6228454,2.1868063 6.2760389,1.5 8.0000018,1.5 8.9663076,1.5 9.9247326,1.7145001 10.797846,2.133352 10.937961,2.199793 10.9979,2.3687901 10.930738,2.5089056 10.863568,2.6490132 10.6953,2.7089595 10.554461,2.6417982 9.7578285,2.26336 8.8846926,2.0654675 7.9999609,2.0654675 c -1.5744623,0 -3.0831938,0.6239757 -4.1968063,1.7376126 C 2.689461,4.9167738 2.0655421,6.4254238 2.0655421,7.999886 c 0,1.574381 0.6240163,3.083112 1.7376125,4.196807 1.1136938,1.113612 2.6224251,1.737611 4.1968063,1.737611 1.5744627,0 3.0831941,-0.623975 4.1968071,-1.737611 1.113612,-1.113695 1.737612,-2.6223442 1.737612,-4.196807 0,-1.1757681 -0.347384,-2.3233435 -1.000268,-3.2984247 z M 8.0584449,3.8769094 c 0.163215,0 0.2953847,0.1321613 0.2953847,0.2953844 v 4.102881 c 0,0.1624998 -0.1321697,0.2953842 -0.2953847,0.2953842 -0.1632231,0 -0.2953842,-0.1328924 -0.2953842,-0.2953842 v -4.102881 c 0,-0.1632231 0.1321692,-0.2953844 0.2953842,-0.2953844 z m 1.2710747,1.9413063 c -0.145169,-0.073665 -0.203661,-0.2506075 -0.13,-0.3957769 0.07366,-0.1451693 0.250608,-0.2036693 0.395777,-0.1299999 0.5850004,0.2953843 1.0782694,0.7474918 1.4213064,1.3057691 0.345223,0.5582686 0.52867,1.1995746 0.52867,1.8553431 0,0.1624998 -0.01155,0.3221075 -0.0325,0.4817152 -0.114838,0.8478439 -0.534446,1.6278437 -1.178694,2.1919627 -0.6470995,0.564777 -1.4747685,0.874575 -2.3313058,0.8775 -0.1596078,0 -0.3221165,-0.01155 -0.4788315,-0.0325 C 6.6731728,11.857398 5.8931727,11.43779 5.329054,10.793616 4.7642771,10.146492 4.454479,9.3195785 4.454479,8.46231 c 0,-0.1624918 0.00867,-0.3221076 0.0325,-0.481715 0.1653925,-1.232075 0.9692312,-2.2865374 2.1095749,-2.7798062 0.150223,-0.063555 0.3242769,0.00579 0.388554,0.1552769 0.064276,0.1487769 -0.00365,0.3228306 -0.1523928,0.3885538 -0.9511935,0.4102231 -1.6220749,1.2905748 -1.7607686,2.3161936 -0.018054,0.1328923 -0.026721,0.2657767 -0.026721,0.4015538 0,0.7121075 0.26,1.4032685 0.7301776,1.9413061 0.4694378,0.537331 1.1194621,0.886194 1.8257687,0.980769 0.1328922,0.01805 0.2686692,0.02961 0.4015541,0.02961 0.7149833,-0.0029 1.4032683,-0.26 1.9413873,-0.733054 0.5373304,-0.469438 0.8861934,-1.1194624 0.9836934,-1.8257683 0.01805,-0.1328924 0.02673,-0.2657687 0.02673,-0.4015539 0,-1.1107682 -0.632678,-2.1334622 -1.6250014,-2.6353435 z"
     style="clip-rule:evenodd;isolation:isolate;fill:#d19494;fill-rule:evenodd;stroke-width:1.20128;stroke-linejoin:round;stroke-miterlimit:1.4142" />
</svg>
