<?xml version="1.0" encoding="UTF-8" standalone="no"?>
<svg
   width="16"
   height="16"
   version="1.1"
   id="svg1318"
   sodipodi:docname="system-log-out-symbolic.svg"
   inkscape:version="1.2.2 (b0a8486541, 2022-12-01)"
   xmlns:inkscape="http://www.inkscape.org/namespaces/inkscape"
   xmlns:sodipodi="http://sodipodi.sourceforge.net/DTD/sodipodi-0.dtd"
   xmlns="http://www.w3.org/2000/svg"
   xmlns:svg="http://www.w3.org/2000/svg">
  <defs
     id="defs1322" />
  <sodipodi:namedview
     id="namedview1320"
     pagecolor="#ffffff"
     bordercolor="#000000"
     borderopacity="0.25"
     inkscape:showpageshadow="2"
     inkscape:pageopacity="0.0"
     inkscape:pagecheckerboard="0"
     inkscape:deskcolor="#d1d1d1"
     showgrid="false"
     inkscape:zoom="53.875"
     inkscape:cx="6.7935035"
     inkscape:cy="8"
     inkscape:window-width="1920"
     inkscape:window-height="1021"
     inkscape:window-x="0"
     inkscape:window-y="0"
     inkscape:window-maximized="1"
     inkscape:current-layer="svg1318" />
  <path
     id="path163"
     d="M 12.74449,4.8284582 C 12.66047,4.7041536 12.6938,4.5354035 12.8181,4.4513801 c 0.12431,-0.084031 0.29375,-0.05139 0.377774,0.072917 C 13.883347,5.5541408 14.25,6.7638284 14.25,8 c 0,1.657578 -0.657641,3.247188 -1.831223,4.41875 C 11.247286,13.592343 9.6577143,14.25 8,14.25 6.3423622,14.25 4.7527901,13.592383 3.5812227,12.41875 2.4076559,11.247266 1.7499999,9.6576565 1.7499999,8 c 0,-1.657578 0.6576405,-3.2471873 1.8312228,-4.4187497 C 4.7527132,2.4104691 6.3422854,1.7500003 8,1.7500003 c 0.9291476,0 1.8506809,0.20625 2.690305,0.6090313 0.134723,0.063887 0.19236,0.2263827 0.127778,0.3611093 -0.06459,0.1347188 -0.226391,0.1923594 -0.361806,0.1277735 C 9.6903314,2.4840316 8.8507071,2.2937503 8.0000077,2.2937503 6.486114,2.2937503 5.0354412,2.8937581 3.9646256,3.9646096 2.8938106,5.035469 2.2937598,6.4860939 2.2937598,8 c 0,1.513906 0.6000121,2.964609 1.6708658,4.035391 1.0708156,1.070858 2.5214884,1.670859 4.0353821,1.670859 1.5138928,0 2.9645663,-0.600009 4.0353813,-1.670859 C 13.106205,10.964532 13.706255,9.513906 13.706255,8 c 0,-1.1305468 -0.334027,-2.2339842 -0.961758,-3.1715624 z M 6.5257147,5.2840129 c 0.022911,0.03125 0.045136,0.059724 0.073611,0.085414 l 0.0028,0.00276 1.3194641,1.3187496 c 0.1104125,0.11111 0.1104125,0.2909767 0,0.402086 L 6.147973,8.8666166 c -0.1118039,0.1111093 -0.2916653,0.1111093 -0.4020848,0 C 5.6354765,8.754812 5.6361616,8.5742571 5.7472582,8.4631472 L 7.3180618,6.8922841 6.2014081,5.7756438 c -0.07361,-0.070834 -0.136115,-0.1534688 -0.190275,-0.2416719 -0.05347,-0.090969 -0.08194,-0.195836 -0.084724,-0.3013828 0,-0.1756953 0.099306,-0.3375 0.2527796,-0.4229141 C 6.31529,4.738841 6.4687559,4.7048166 6.6250063,4.713145 h 0.031249 l 3.4604027,0.1048604 h 0.0028 c 0.224264,0.00833 0.437458,0.099305 0.5965,0.2583359 0.161802,0.15625 0.261109,0.3666641 0.27569,0.5909844 v 0.00276 l 0.213194,3.6082814 0.0027,0.070836 c 0.0083,0.1451411 -0.02292,0.2930552 -0.09375,0.4236096 -0.08261,0.14722 -0.238856,0.2409703 -0.408989,0.2444463 -0.10555,-0.0036 -0.210417,-0.034719 -0.29861,-0.088195 C 10.318003,9.8776837 10.236053,9.8124 10.164527,9.7387908 L 9.1985405,8.772775 6.9388523,11.030352 C 6.7173218,11.251885 6.3568918,11.251885 6.1353756,11.029638 L 5.1423161,10.036585 C 5.0319043,9.9254753 5.0325966,9.7449134 5.1436851,9.634507 5.2541045,9.5240929 5.4339582,9.5233971 5.5450777,9.6331975 l 0.7909405,0.7930475 c 0.1111118,0.11111 0.2909649,0.111804 0.4020843,7.14e-4 L 8.9978887,8.1692166 c 0.1111118,-0.1104141 0.2909654,-0.1104141 0.4020845,0 l 1.1680298,1.1687501 c 0.0027,0.00286 0.0027,0.00286 0.0055,0.00554 0.02014,0.020137 0.04305,0.039589 0.06528,0.059728 V 9.369196 l -0.0028,-0.06527 -0.209726,-3.5993076 c -0.0062,-0.085394 -0.0458,-0.1624716 -0.105532,-0.2221982 -0.05973,-0.059029 -0.138892,-0.09375 -0.224308,-0.096531 L 6.6450489,5.2810606 h -0.034029 c -0.00625,0 -0.00902,0 -0.014583,-0.00276 -0.022911,0 -0.045136,0 -0.070826,0.00555 z"
     style="clip-rule:evenodd;isolation:isolate;fill:#bdb3c1;fill-rule:evenodd;stroke-width:1.20998;stroke-linejoin:round;stroke-miterlimit:1.4142" />
</svg>
