<?xml version="1.0" encoding="UTF-8" standalone="no"?>
<svg
   width="16px"
   height="16px"
   version="1.1"
   viewBox="0 0 16 16"
   id="svg1193"
   sodipodi:docname="system-log-out-rtl-symbolic.svg"
   inkscape:version="1.2.2 (b0a8486541, 2022-12-01)"
   xmlns:inkscape="http://www.inkscape.org/namespaces/inkscape"
   xmlns:sodipodi="http://sodipodi.sourceforge.net/DTD/sodipodi-0.dtd"
   xmlns="http://www.w3.org/2000/svg"
   xmlns:svg="http://www.w3.org/2000/svg">
  <defs
     id="defs1197" />
  <sodipodi:namedview
     id="namedview1195"
     pagecolor="#ffffff"
     bordercolor="#000000"
     borderopacity="0.25"
     inkscape:showpageshadow="2"
     inkscape:pageopacity="0.0"
     inkscape:pagecheckerboard="0"
     inkscape:deskcolor="#d1d1d1"
     showgrid="false"
     inkscape:zoom="53.875"
     inkscape:cx="6.7935035"
     inkscape:cy="8"
     inkscape:window-width="1920"
     inkscape:window-height="1021"
     inkscape:window-x="0"
     inkscape:window-y="0"
     inkscape:window-maximized="1"
     inkscape:current-layer="svg1193" />
  <path
     id="path163"
     d="M 12.74449,4.8284578 C 12.66047,4.7041532 12.6938,4.5354031 12.8181,4.4513797 12.94241,4.3673485 13.11185,4.3999892 13.195874,4.5242969 13.883347,5.5541406 14.25,6.7638282 14.25,7.9999999 14.25,9.6575778 13.592359,11.247187 12.418777,12.418749 11.247286,13.592343 9.6577142,14.25 7.9999999,14.25 6.3423622,14.25 4.75279,13.592383 3.5812226,12.418749 2.4076559,11.247265 1.75,9.6576564 1.75,7.9999999 1.75,6.3424219 2.4076405,4.7528125 3.5812226,3.5812501 4.7527132,2.4104689 6.3422855,1.7500002 7.9999999,1.7500002 c 0.9291476,0 1.8506809,0.20625 2.6903051,0.6090312 0.134724,0.063888 0.19236,0.2263827 0.127778,0.3611093 -0.06459,0.1347188 -0.226391,0.1923594 -0.361806,0.1277735 -0.7659456,-0.3638828 -1.60557,-0.554164 -2.4562694,-0.554164 -1.5138936,0 -2.9645664,0.6000077 -4.0353821,1.6708592 -1.070815,1.0708594 -1.6708657,2.5214843 -1.6708657,4.0353905 0,1.5139059 0.600012,2.9646091 1.6708657,4.0353911 1.0708157,1.070858 2.5214885,1.670858 4.0353821,1.670858 1.5138929,0 2.9645664,-0.600008 4.0353814,-1.670858 1.070816,-1.07086 1.670866,-2.5214852 1.670866,-4.0353911 0,-1.1305469 -0.334027,-2.2339842 -0.961758,-3.1715624 z M 6.5257147,5.2840125 c 0.02291,0.03125 0.045136,0.059723 0.073611,0.085414 l 0.0028,0.00276 1.3194641,1.3187496 c 0.1104125,0.11111 0.1104125,0.2909768 0,0.4020861 L 6.147973,8.8666163 c -0.1118039,0.1111093 -0.2916653,0.1111093 -0.4020848,0 -0.110414,-0.1118087 -0.109729,-0.2923636 0.00137,-0.4034735 L 7.3180618,6.8922837 6.2014081,5.7756434 C 6.1277977,5.704809 6.0652931,5.6221746 6.0111331,5.5339715 5.9576635,5.4430028 5.929193,5.3381356 5.9264092,5.2325888 c 0,-0.1756954 0.099306,-0.3375001 0.2527795,-0.4229142 0.1361013,-0.070834 0.2895672,-0.1048584 0.4458176,-0.09653 h 0.031249 l 3.4604027,0.1048603 h 0.0028 c 0.224264,0.00833 0.437458,0.099305 0.5965,0.2583359 0.161802,0.1562501 0.261109,0.3666641 0.27569,0.5909844 v 0.00276 l 0.213194,3.6082814 0.0027,0.070836 c 0.0083,0.1451427 -0.02292,0.293057 -0.09376,0.4236111 -0.08264,0.1472185 -0.238889,0.2409685 -0.409021,0.2444455 -0.105551,-0.0036 -0.210418,-0.03472 -0.298611,-0.088195 C 10.31796,9.8776828 10.236011,9.8124002 10.164484,9.7387906 L 9.1985404,8.7727746 6.9388524,11.030352 C 6.7173218,11.251884 6.3568918,11.251884 6.1353756,11.029638 L 5.1423161,10.036585 C 5.0319043,9.9254749 5.0325966,9.744913 5.1436851,9.6345064 5.2541045,9.5240927 5.4339582,9.5233969 5.5450777,9.6331969 l 0.7909406,0.7930471 c 0.1111117,0.11111 0.2909648,0.111805 0.4020842,7.15e-4 L 8.9978886,8.1692162 c 0.1111119,-0.1104141 0.2909655,-0.1104141 0.4020845,0 l 1.1680299,1.1687503 c 0.0027,0.00286 0.0027,0.00286 0.0055,0.00554 0.02014,0.020137 0.04305,0.039589 0.06528,0.059728 v -0.034036 l -0.0028,-0.06527 -0.209728,-3.5993116 c -0.0062,-0.085393 -0.0458,-0.1624708 -0.105532,-0.2221974 -0.05973,-0.059029 -0.138892,-0.09375 -0.224308,-0.096531 L 6.6450489,5.2810602 h -0.034029 c -0.00625,0 -0.00902,0 -0.014583,-0.00276 -0.02291,0 -0.045136,0 -0.070826,0.00555 z"
     style="clip-rule:evenodd;isolation:isolate;fill:#bdb3c1;fill-rule:evenodd;stroke-width:1.20998;stroke-linejoin:round;stroke-miterlimit:1.4142" />
</svg>
